<?xml version="1.0" encoding="utf-8"?>
<!-- Generator: Adobe Illustrator 25.2.1, SVG Export Plug-In . SVG Version: 6.00 Build 0)  -->
<svg version="1.1" id="Layer_1" xmlns="http://www.w3.org/2000/svg" xmlns:xlink="http://www.w3.org/1999/xlink" x="0px" y="0px"
	 viewBox="0 0 256 256" style="enable-background:new 0 0 256 256;" xml:space="preserve">
<style type="text/css">
	.st0{fill:#B1C9E2;}
</style>
<path class="st0" d="M239.4,109c5.8,0,10.6-4.7,10.6-10.4V68.9c0-5.7-4.8-10.4-10.6-10.4h-13.9L127.9,5.1L35.1,58.5H16.6
	C10.8,58.5,6,63.2,6,68.9v29.7c0,5.7,4.8,10.4,10.6,10.4H34v101.5H15.7c-5.3,0-9.7,4.3-9.7,9.5v21.3c0,5.2,4.4,9.5,9.7,9.5h224.6
	c5.3,0,9.7-4.3,9.7-9.5v-21.3c0-5.2-4.4-9.5-9.7-9.5H222V109H239.4z M238.7,221.6v18.2H17.3v-18.2H238.7z M45.2,210.6V109h21.4
	v101.5H45.2z M77.9,210.6V109h30v101.5H77.9z M119.2,210.6V109h18.5v101.5H119.2z M149,210.6V109h32v101.5H149z M192.3,210.6V109
	h18.5v101.5H192.3z M17.3,97.9V69.5h20.6l19.6-11.1l70.6-40.6l74.2,40.6l21.1,11.1h15.4v28.4C238.8,97.9,17.3,97.9,17.3,97.9z"/>
</svg>
