<?xml version="1.0" encoding="utf-8"?>
<!-- Generator: Adobe Illustrator 25.2.1, SVG Export Plug-In . SVG Version: 6.00 Build 0)  -->
<svg version="1.1" id="Layer_1" xmlns="http://www.w3.org/2000/svg" xmlns:xlink="http://www.w3.org/1999/xlink" x="0px" y="0px"
	 viewBox="0 0 256 256" style="enable-background:new 0 0 256 256;" xml:space="preserve">
<style type="text/css">
	.st0{fill:#B1C9E2;}
</style>
<path class="st0" d="M229.7,41.8H49.3c-11.1,0-20.1,9-20.1,20.1v72.4c-13.7,7-22.9,21.3-22.9,37.6c0,23.3,19,42.3,42.3,42.3
	c15.7,0,29.4-8.6,36.8-21.4h144.3c11.1,0,20.1-9,20.1-20.1V61.9C249.7,50.8,240.8,41.8,229.7,41.8z M79.6,180.1
	c-1.3,4.8-3.6,9.1-6.7,12.7C67,199.6,58.2,204,48.5,204c-17.7,0-32.2-14.4-32.2-32.2c0-10.4,5-19.7,12.8-25.6
	c3.7-2.8,8-4.9,12.7-5.9c2.1-0.5,4.4-0.7,6.6-0.7c17.7,0,32.2,14.4,32.2,32.2C80.7,174.7,80.3,177.4,79.6,180.1z M237.1,172.8
	c0,4.1-3.3,7.4-7.4,7.4H90c0.5-2.6,0.8-5.4,0.8-8.2c0-23.4-19-42.3-42.3-42.3c-2.2,0-4.5,0.2-6.6,0.5v-20.7h195.2V172.8z
	 M237.1,96.7H41.8V81.1h195.2V96.7z M237.1,68.3H41.8v-6.4c0-4.1,3.3-7.4,7.4-7.4h180.4c4.1,0,7.4,3.3,7.4,7.4L237.1,68.3
	L237.1,68.3z M48,192.1c-11.1,0-20.2-9.1-20.2-20.2s9.1-20.2,20.2-20.2c5.4,0,10.4,2.1,14.3,5.9c1.3,1.3,1.3,3.2,0,4.5
	c-1.3,1.3-3.2,1.3-4.5,0c-2.6-2.6-6.1-4.1-9.8-4.1c-7.6,0-13.8,6.2-13.8,13.8c0,7.6,6.2,13.8,13.8,13.8c3.4,0,6.7-1.3,9.4-3.6
	c1.3-1.2,3.3-1.1,4.5,0.2c1.2,1.3,1.1,3.3-0.2,4.5C57.8,190.2,53.1,192.1,48,192.1z M127.1,167.3c-0.6,0-1.1-0.5-1.1-1.1
	c0-18.6,15.6-33.7,34.7-33.7c4.8,0,9.5,1,13.8,2.7c0.6,0.2,0.8,0.9,0.6,1.4c-0.2,0.6-0.9,0.8-1.4,0.6c-4.1-1.8-8.5-2.6-13-2.6
	c-17.9,0-32.7,14.2-32.7,31.6C128.1,166.8,127.7,167.3,127.1,167.3z M195.5,166.2c0-5.9-1.7-11.8-4.7-16.9c-0.3-0.5-1-0.7-1.5-0.4
	c-0.5,0.3-0.7,1-0.4,1.5c2.8,4.8,4.4,10.2,4.4,15.8c0,0.6,0.5,1.1,1.1,1.1S195.5,166.8,195.5,166.2z M203.2,166.9
	c0-8.3-2.3-16.3-6.9-23.2c-0.7-1-2-1.3-2.9-0.6s-1.3,2-0.6,2.9c4.1,6.2,6.2,13.5,6.2,20.9c0,1.2,1,2.1,2.1,2.1
	C202.3,169.1,203.2,168.1,203.2,166.9z M122.7,166.9c0-21.1,17.1-38.1,38.1-38.1c6.8,0,13.6,1.9,19.4,5.3c1,0.6,2.3,0.3,2.9-0.8
	c0.6-1,0.3-2.3-0.8-2.9c-6.5-3.8-13.9-5.9-21.6-5.9c-23.4,0-42.4,19-42.4,42.4c0,1.2,1,2.1,2.1,2.1
	C121.7,169.1,122.7,168.1,122.7,166.9z M193.1,135.6c0,0.1,0,0.1,0,0.2c0,0.1,0,0.1,0,0.2c0,0.1,0,0.1-0.1,0.2c0,0.1,0,0.1-0.1,0.2
	l-0.1,0.1c0,0.1-0.1,0.1-0.1,0.2l0,0l-25.8,29.2c-0.1,0.1-0.2,0.2-0.3,0.2c-1.3,1.8-3.4,2.9-5.8,2.9c-3.9,0-7.1-3.2-7.1-7.1
	c0-3.1,2-5.7,4.7-6.7l32.3-20.8c0,0,0,0,0.1,0s0.1-0.1,0.2-0.1s0.1-0.1,0.2-0.1c0.1,0,0.1,0,0.2,0h0.1c0.1,0,0.1,0,0.2,0
	c0.1,0,0.1,0,0.2,0c0.1,0,0.1,0,0.2,0s0.1,0,0.2,0.1c0.1,0,0.1,0,0.2,0.1l0.1,0.1c0.1,0,0.1,0.1,0.2,0.1c0.1,0.1,0.1,0.1,0.2,0.2
	l0.1,0.1c0,0.1,0.1,0.1,0.1,0.2c0,0.1,0.1,0.1,0.1,0.2c0,0.1,0,0.1,0,0.2L193.1,135.6C193.1,135.5,193.1,135.5,193.1,135.6z
	 M164.9,161.8c0-2.2-1.9-4.1-4.1-4.1c-0.4,0-0.9,0.1-1.3,0.2h-0.1c-1.7,0.6-2.7,2-2.7,3.9c0,2.2,1.9,4.1,4.1,4.1
	C163.1,165.9,164.9,164.2,164.9,161.8z M183.2,142.7l-19.6,12.7c2,0.9,3.6,2.7,4.1,4.9L183.2,142.7z"/>
</svg>
