<?xml version="1.0" encoding="utf-8"?>
<!-- Generator: Adobe Illustrator 25.2.1, SVG Export Plug-In . SVG Version: 6.00 Build 0)  -->
<svg version="1.1" id="Layer_1" xmlns="http://www.w3.org/2000/svg" xmlns:xlink="http://www.w3.org/1999/xlink" x="0px" y="0px"
	 viewBox="0 0 256 256" style="enable-background:new 0 0 256 256;" xml:space="preserve">
<style type="text/css">
	.st0{fill:#B1C9E2;}
</style>
<path class="st0" d="M230.2,41.3H48.8c-11.2,0-20.2,9-20.2,20.2v72.8c-13.7,7.1-23,21.4-23,37.8c0,23.4,19.1,42.6,42.6,42.6
	c15.8,0,29.6-8.6,37-21.5h145.1c11.2,0,20.2-9,20.2-20.2V61.5C250.4,50.3,241.4,41.3,230.2,41.3z M79.3,180.4
	c-1.3,4.8-3.6,9.1-6.8,12.7c-5.9,6.9-14.7,11.3-24.5,11.3c-17.8,0-32.4-14.5-32.4-32.4c0-10.5,5-19.8,12.8-25.8
	c3.7-2.8,8-4.9,12.7-5.9c2.2-0.5,4.4-0.7,6.7-0.7c17.8,0,32.4,14.5,32.4,32.4C80.4,175,80,177.7,79.3,180.4z M237.7,173
	c0,4.1-3.3,7.5-7.5,7.5H89.8c0.5-2.6,0.8-5.4,0.8-8.2c0-23.5-19.1-42.6-42.6-42.6c-2.3,0-4.5,0.2-6.7,0.5v-20.8h196.3V173z
	 M237.7,96.5H41.4V80.8h196.3V96.5z M237.7,68H41.4v-6.5c0-4.1,3.3-7.5,7.5-7.5h181.4c4.1,0,7.5,3.3,7.5,7.5L237.7,68L237.7,68z
	 M186.8,157.3c-1.4,0.7-2.8,1-4.5,1c-6,0-10.9-4.9-10.9-10.9c0-6,4.9-10.9,10.9-10.9c1.6,0,3.1,0.4,4.5,1c1.7-3.1,4.1-5.8,7.1-7.7
	c-3.3-2.2-7.3-3.4-11.6-3.4c-11.6,0-21.1,9.5-21.1,21.1c0,11.6,9.5,21.1,21.1,21.1c4.3,0,8.2-1.3,11.6-3.4
	C190.9,163.2,188.5,160.5,186.8,157.3z M205.4,126.4c-4.3,0-8.2,1.3-11.6,3.4c-2.9,2-5.4,4.6-7.1,7.7c-1.6,2.9-2.5,6.3-2.5,9.8
	c0,3.5,0.9,6.9,2.5,9.8c1.7,3.1,4.1,5.8,7.1,7.7c3.3,2.2,7.3,3.4,11.6,3.4c11.6,0,21.1-9.5,21.1-21.1S217.1,126.4,205.4,126.4z
	 M205.4,158.3c-1.6,0-3.1-0.4-4.5-1c-3.7-1.7-6.4-5.5-6.4-9.8c0-4.4,2.6-8.1,6.4-9.8c1.4-0.7,2.8-1,4.5-1c6,0,10.9,4.9,10.9,10.9
	C216.3,153.5,211.4,158.3,205.4,158.3z M47.5,192.4c-11.2,0-20.3-9.1-20.3-20.3c0-11.2,9.1-20.3,20.3-20.3c5.4,0,10.5,2.2,14.4,6
	c1.3,1.3,1.3,3.2,0,4.5c-1.3,1.3-3.2,1.3-4.5,0c-2.6-2.6-6.2-4.1-9.9-4.1c-7.6,0-13.9,6.3-13.9,13.9S39.9,186,47.5,186
	c3.4,0,6.8-1.3,9.4-3.6c1.3-1.2,3.3-1.1,4.5,0.2c1.2,1.3,1.1,3.3-0.2,4.5C57.4,190.6,52.6,192.4,47.5,192.4z"/>
</svg>
