<?xml version="1.0" encoding="utf-8"?>
<!-- Generator: Adobe Illustrator 25.2.1, SVG Export Plug-In . SVG Version: 6.00 Build 0)  -->
<svg version="1.1" id="Layer_1" xmlns="http://www.w3.org/2000/svg" xmlns:xlink="http://www.w3.org/1999/xlink" x="0px" y="0px"
	 viewBox="0 0 256 256" style="enable-background:new 0 0 256 256;" xml:space="preserve">
<style type="text/css">
	.st0{fill:#B1C9E2;}
</style>
<path class="st0" d="M127.3,139H32.7v-4.5h94.7L127.3,139L127.3,139z M91.5,146.4H32.7v4.5h58.8C91.5,150.9,91.5,146.4,91.5,146.4z
	 M188.9,182.5h-35.8v4.5h35.8V182.5z M109.4,158.4v17.8H30.5v-17.8H109.4z M35,171.6h20.9v-8.9H35V171.6z M104.9,162.8H60.3v8.9
	h44.7V162.8z M250.5,106.8c0,26.6-21,48.3-47.2,49.4v42.4H5.5V98.7h146.7c3.9-23.4,24.2-41.4,48.7-41.4
	C228.3,57.4,250.5,79.5,250.5,106.8z M10,116l14.1-12.8H10V116z M10,129.9l28-26.8h-7.3L10,122.1V129.9z M198.8,156.2
	c-19.5-0.9-36-13-43.3-30.1H32.7v-4.5h121.1c-1.5-4.7-2.3-9.7-2.3-14.9c0-1.2,0-2.4,0.1-3.6H44.5L10,136.1v58h188.9L198.8,156.2
	L198.8,156.2z M243.8,106.8c0-23.5-19.2-42.7-42.7-42.7c-20.8,0-38.2,15-41.9,34.6c-0.3,1.5-0.5,2.9-0.6,4.5
	c-0.1,1.2-0.2,2.4-0.2,3.6c0,22.9,18,41.5,40.5,42.7c0.8,0,1.5,0,2.2,0c0.8,0,1.5,0,2.2,0C225.8,148.3,243.8,129.7,243.8,106.8z
	 M217.4,91h-10.9c-0.2-2.5-0.9-5-2.1-7.2h13c0.8,0,1.4-0.4,1.8-0.9c0.3-0.4,0.5-0.8,0.5-1.4c0-1.3-1-2.2-2.2-2.2l-32.7-0.1
	c-1.3,0-2.2,1-2.2,2.2c0,1.3,1,2.2,2.2,2.2h14.1c1.8,1.9,2.9,4.5,3.1,7.2l-17.2-0.1c-1.3,0-2.2,1-2.2,2.2s1,2.2,2.2,2.2l16.8,0.1
	c-1.5,5.1-6.2,8.9-11.8,8.9c-0.4,0-0.9,0-1.3-0.1l-0.6-0.8c-0.8-1-2.1-1.2-3.1-0.5c-1,0.7-1.2,2.1-0.5,3.1l19.4,26.4
	c0.5,0.6,1.1,0.9,1.8,0.9c0.5,0,0.9-0.1,1.4-0.4c1-0.8,1.2-2.1,0.5-3.1l-15.6-21.1c7.2-0.9,12.9-6.2,14.4-13.2h11.2
	c0.8,0,1.4-0.4,1.8-0.9c0.3-0.4,0.5-0.9,0.5-1.4C219.7,92.1,218.6,91,217.4,91z"/>
</svg>
