<?xml version="1.0" encoding="utf-8"?>
<!-- Generator: Adobe Illustrator 25.2.1, SVG Export Plug-In . SVG Version: 6.00 Build 0)  -->
<svg version="1.1" id="Layer_1" xmlns="http://www.w3.org/2000/svg" xmlns:xlink="http://www.w3.org/1999/xlink" x="0px" y="0px"
	 viewBox="0 0 256 256" style="enable-background:new 0 0 256 256;" xml:space="preserve">
<style type="text/css">
	.st0{fill:#B1C9E2;}
</style>
<path class="st0" d="M127.3,139.1H31.6v-4.5h95.8L127.3,139.1L127.3,139.1z M91.1,146.6H31.6v4.5h59.5
	C91.1,151.1,91.1,146.6,91.1,146.6z M189.6,183h-36.2v4.5h36.2V183z M109.2,158.6v18H29.4v-18H109.2z M33.9,172.1h21.2v-9H33.9
	V172.1z M104.7,163.1H59.5v9h45.2V163.1z M251.9,106.5c0,26.9-21.3,48.8-47.7,50v42.9H4.1V98.4h148.5c3.9-23.7,24.5-41.8,49.3-41.8
	C229.5,56.4,251.9,78.9,251.9,106.5z M8.6,115.9l14.3-13H8.6V115.9z M8.6,130l28.4-27.1h-7.4L8.6,122V130z M199.7,156.5
	c-19.7-0.9-36.4-13.2-43.8-30.4H31.6v-4.5h122.6c-1.5-4.7-2.4-9.8-2.4-15.1c0-1.2,0-2.5,0.1-3.6H43.5L8.6,136.2v58.7h191.1
	L199.7,156.5L199.7,156.5z M245.1,106.5c0-23.8-19.4-43.2-43.2-43.2c-21.1,0-38.7,15.2-42.4,35c-0.3,1.5-0.5,3-0.6,4.5
	c-0.1,1.2-0.2,2.5-0.2,3.6c0,23.1,18.2,42,41,43.2c0.8,0,1.5,0,2.3,0s1.5,0,2.3,0C226.9,148.5,245.1,129.6,245.1,106.5z
	 M228.5,104.8h-45.6l21.7-20.1c1.1-1,1.1-2.7,0.2-3.7c-1-1.1-2.7-1.2-3.7-0.2l-28.2,26.1c-0.3,0.2-0.3,0.6,0,0.9l28.2,26.1
	c0.5,0.5,1.2,0.7,1.8,0.7c0.7,0,1.4-0.3,2-0.9c1-1.1,0.9-2.8-0.2-3.7l-21.7-20.1h45.6c1.5,0,2.7-1.2,2.7-2.7
	C231.1,105.9,229.9,104.8,228.5,104.8z"/>
</svg>
