<?xml version="1.0" encoding="utf-8"?>
<!-- Generator: Adobe Illustrator 25.2.1, SVG Export Plug-In . SVG Version: 6.00 Build 0)  -->
<svg version="1.1" id="Layer_1" xmlns="http://www.w3.org/2000/svg" xmlns:xlink="http://www.w3.org/1999/xlink" x="0px" y="0px"
	 viewBox="0 0 256 256" style="enable-background:new 0 0 256 256;" xml:space="preserve">
<style type="text/css">
	.st0{fill:#B1C9E2;}
</style>
<path class="st0" d="M227.1,134.2l-41.7-41.1c-4.1-4-10.7-4-14.8,0l-9.4,9.3c-2.2,2.2-3.2,5-3,7.9l-5.4,5.8l-16.5-0.4
	c-0.7-0.1-1.5,0.1-2.1,0.4l0,0c-0.7,0.1-1.5,0.5-2,1l-5.1,5.3l-2.9-2.7c-0.2-0.2-0.3-0.3-0.5-0.4c-0.8-0.9-2.1-1.5-3.4-1.3
	l-16.5,0.4l-5.8-6.2c-0.3-0.3-0.6-0.5-1-0.7c0.3-3-0.7-6-3-8.3l-9.3-9.3c-4-4-10.6-4-14.6,0l-41.2,41.2c-4,4-4,10.6,0,14.6l9.3,9.3
	c2.7,2.7,6.4,3.6,9.8,2.7l18.2,18.2l-6.2,5.7c-3.4,3.4-3.4,8.9,0,12.3l4.9,4.9c1.9,1.9,4.1,2.7,6.2,2.5c0,2.2,0.9,4.3,2.5,6l5,5
	c1.8,1.6,3.8,2.4,5.8,2.6c0.1,2.1,0.9,4.2,2.5,5.9l5,5c1.7,1.7,4,2.6,6.3,2.6c-0.1,2.3,0.8,4.7,2.5,6.4l5,5
	c3.4,3.4,10.3,2.8,13.7-0.6l5.3-5.5c2.3,4,6.6,6.7,11.5,6.7c6,0,11.1-4,12.7-9.6l0,0l0,0c0,0,0,0,0-0.1l0,0c0.1-0.3,0.2-0.7,0.2-1.1
	c0-0.1,0-0.1,0-0.2c1.5,0.7,3.1,1.1,4.9,1.1c6.3,0,11.4-4.9,11.7-11.1c0-0.1,0-0.2,0-0.2c0.7,0.2,1.4,0.4,2.2,0.5
	c0.5,0,0.9,0.1,1.4,0.1c0.3,0,0.7,0,1,0c0,0,0,0,0.1,0s0.2,0,0.4-0.1c6.2-1.1,11-6.5,11-13l0,0c7.3,0,13.2-5.9,13.2-13.2
	c0-4.1-1.9-7.8-4.9-10.2c0,0,0,0-0.1,0c-0.2-0.2-0.5-0.5-0.8-0.8l0,0c-1.3-1.3-2.6-2.6-2.6-2.6l21.2-21.8c0.2-0.2,0.4-0.5,0.6-0.7
	c3.2,0.5,6.6-0.5,9.1-2.9l9.4-9.3C231.2,144.8,231.2,138.3,227.1,134.2z M43.5,152.9l-8.6-8.5c-1.2-1.2-1.2-3.3,0-4.5l40.6-40.6
	c1.2-1.2,3.2-1.2,4.5,0l8.5,8.5c1.2,1.2,1.2,3.3,0,4.5L48,152.9C46.7,154.1,44.7,154.1,43.5,152.9z M74.4,197.8
	c-1.3,1.3-3.5,1.3-4.8,0l-3.6-3.6c-1.3-1.3-1.3-3.5,0-4.8l8.1-8.1c1.3-1.3,3.5-1.3,4.8,0l3.6,3.6c1.3,1.3,1.3,3.5,0,4.8L74.4,197.8z
	 M87.9,210.8c-1.3,1.3-3.5,1.3-4.8,0l-2.9-3.2c-1.3-1.3-1.3-3.5,0-4.8l8.2-8.1c1.3-1.3,3.4-1.3,4.8,0l2.9,3.2c1.3,1.3,1.3,3.5,0,4.8
	L87.9,210.8z M101.5,224.2c-1.3,1.3-3.5,1.3-4.8,0l-3.8-3.9c-1.3-1.3-0.8-3.5,0.5-4.8l8.5-7.7c1.3-1.3,2.5-1.3,3.8,0l3.8,3.4
	c1.3,1.3,1.3,3.4,0,4.8L101.5,224.2z M123.4,229.6l-8.2,8.2c-1.3,1.3-3.4,1.3-4.8,0l-3.6-3.5c-1.3-1.3-1.3-3.5,0-4.8l8.1-8.1
	c1.3-1.3,3.5-1.3,4.8,0l2.9,3c0.7,0.7,1.2,1.4,1.4,2.1C124.5,227.6,124.2,228.7,123.4,229.6z M187.3,197.4c0,2.9-2.3,5.2-5.2,5.2
	c-1.2,0-2.3-0.4-3.2-1.1c-0.3-0.2-9.2-8.9-9.2-8.9l-20.2-20.7c-1.6-1.6-4.1-1.6-5.7,0s-1.6,4.1,0,5.7c0,0,13.1,13.1,21.7,21.9
	c4.3,4.3,7.6,7.6,7.6,7.6c0.8,1,1.2,2.2,1.2,3.5c0,3.1-2.5,5.6-5.6,5.6c-1.2,0-2.5-0.3-3.3-1.1c-0.4-0.4-0.6-0.6-1.1-1.1l-6.5-6.6
	l-21.7-22c-1.6-1.6-4.1-1.6-5.7,0s-1.6,4.1,0,5.7l20.3,20.5l0.9,0.9l5.7,5.7c0.9,1,1.5,2.2,1.5,3.6c0,2.9-2.4,5.3-5.3,5.3
	c-1.2,0-2.3-0.4-3.1-1c-0.1-0.1-0.9-0.8-0.9-0.8l-5.4-5.4l-1-0.9l-21-21c-1.6-1.5-4.1-1.5-5.7,0.1c-1.5,1.6-1.5,4.1,0.1,5.7
	l24.4,24.4c0.6,0.9,0.9,1.9,0.9,3.1c0,3-2.5,5.5-5.5,5.5s-5.5-2.5-5.5-5.5c0-0.1,0-0.1,0-0.2c0-1,0.3-2,0.8-2.8
	c0.4-2.8-0.4-5.8-2.4-7.9l-0.2-0.2l-4.8-4.8c-1.7-1.7-4-2.6-6.3-2.5c0.1-2.3-0.8-4.7-2.6-6.5l-5.8-5c-1.4-1.4-3.1-2.1-4.9-2.2
	c-0.1-2-1-3.9-2.7-5.5l-5-5c-1.8-1.8-4.1-2.9-6.5-3c0.1-2.1-0.8-4.3-3.1-6.3l-3.9-4.1c-3.1-3.1-8-3.4-11.4-0.8L54.5,157l38.4-38.4
	l5.9,6.3c0.3,0.3,0.7,0.6,1.1,0.8c0.8,0.5,1.7,0.8,2.7,0.7L119,126l2.3,2.2l-13.7,14c-0.5,0.5-0.9,1.2-1.1,1.8c0,0,0,0,0,0.1
	s-0.1,0.3-0.1,0.4l-4,20.5c-0.1,0.3-0.1,0.7-0.1,1l0,0c-0.4,4.3,0.6,11.2,7.5,13.1c1.3,0.4,2.9,0.7,4.5,0.7c3.7,0,8.1-1.3,12.4-5.7
	c3.1-3.2,5.7-9.9,6.5-17l8.3-8.8c0.1,0.1,0.2,0.2,0.3,0.4l44,45.1C186.8,194.7,187.3,196,187.3,197.4z M181.4,177.9l-33.9-35
	c-0.2-0.2-0.4-0.3-0.6-0.5c0.4-0.6,0.7-1.4,0.7-2.1c0-1-0.3-2.1-1.1-2.9c-1.5-1.6-4-1.7-5.7-0.1l-14.3,15.2c-1,0.9-1.4,2.2-1.2,3.4
	c-0.7,6.2-2.9,11-4.2,12.5c-2.9,2.9-5.7,3.9-9,3c-2.4-0.7-1.7-4.9-1.7-5.2l0,0l0,0l3.7-19.1l22.8-23.3l16.9,0.4
	c1,0.1,1.9-0.2,2.7-0.7l0,0c0.4-0.2,0.8-0.4,1.1-0.8l4.5-4.8l39.6,39.1L181.4,177.9z M221.6,144.2l-8.6,8.6c-1.2,1.2-3.3,1.2-4.5,0
	l-41.1-40.5c-1.3-1.2-1.3-3.3,0-4.5l8.6-8.6c1.3-1.2,3.3-1.2,4.6,0l41.1,40.5C222.9,140.9,222.9,142.9,221.6,144.2z M206.3,104.1
	l-7-7V19.9c0-1.7-1.4-3-3-3H61.2c-1.7,0-3,1.4-3,3v77.2l-7,7V19.9c0-5.5,4.5-10,10-10h135.1c5.5,0,10,4.5,10,10L206.3,104.1
	L206.3,104.1z M128,94c-16.1,0-29.2-13.1-29.2-29.1s13.1-29.2,29.2-29.2s29.2,13.1,29.2,29.2S144.1,94,128,94z M128,42.7
	c-12.2,0-22.2,9.9-22.2,22.2s9.9,22.2,22.2,22.2c12.2,0,22.2-9.9,22.2-22.2S140.2,42.7,128,42.7z M140.2,62.5l-13.4,10.2l0,0
	c-0.4,0.3-0.9,0.5-1.3,0.6c-0.1,0-0.2,0-0.2,0c-0.1,0-0.1,0-0.2,0s-0.2,0-0.3,0s-0.2,0-0.3,0c-0.1,0-0.2,0-0.3,0c-0.1,0-0.2,0-0.2,0
	c-0.1,0-0.2,0-0.3-0.1c-0.4-0.1-0.8-0.4-1.2-0.7c-0.1,0-0.1-0.1-0.2-0.2c0,0,0,0-0.1-0.1l-6.7-6.9c-1.3-1.4-1.3-3.6,0.1-5
	c1.4-1.3,3.6-1.3,5,0.1l4.6,4.7l11-8.4c1.5-1.2,3.7-0.9,4.9,0.7C142,59.1,141.7,61.3,140.2,62.5z"/>
</svg>
