<?xml version="1.0" encoding="utf-8"?>
<!-- Generator: Adobe Illustrator 25.2.1, SVG Export Plug-In . SVG Version: 6.00 Build 0)  -->
<svg version="1.1" id="Layer_1" xmlns="http://www.w3.org/2000/svg" xmlns:xlink="http://www.w3.org/1999/xlink" x="0px" y="0px"
	 viewBox="0 0 256 256" style="enable-background:new 0 0 256 256;" xml:space="preserve">
<style type="text/css">
	.st0{fill:#B1C9E2;}
</style>
<path class="st0" d="M245.8,82.8L131.4,26.2l0,0l-1.8-0.9c-0.5-0.2-1-0.4-1.4-0.4c-0.5,0-1,0.1-1.4,0.4l-1.8,0.9L10.2,82.8
	c-2,1-2.8,3.4-1.8,5.4c1,2,3.4,2.8,5.4,1.8l6.5-3.3l0.3-0.2V227c0,2.2,1.8,4,4,4h206.9c2.2,0,4-1.8,4-4V86.6l6.8,3.4
	c0.6,0.3,1.2,0.4,1.7,0.4c1.4,0,2.9-0.8,3.6-2.2C248.6,86.2,247.8,83.8,245.8,82.8z M167.3,223h-55v-32.4h55V223z M142.4,147.5v35.1
	H92.8v-35.1L142.4,147.5L142.4,147.5z M119.6,139.5v-23.6h35.1v23.6H119.6z M192,223h-16.8v-36.5c0-2.2-1.8-4-4-4h-20.8v-35.1h8.3
	c2.2,0,4-1.8,4-4v-31.6c0-2.2-1.8-4-4-4h-43.1c-2.2,0-4,1.8-4,4v27.7H88.8c-2.2,0-4,1.8-4,4v43c0,2.2,1.8,4,4,4h15.5V223H71.8V91.2
	H192V223z M227.4,223H200V87.2c0-2.2-1.8-4-4-4H67.8c-2.2,0-4,1.8-4,4V223H28.6V82.7l2.1-1.1l8.1-4l8.1-4l81.2-40l81.1,40l8.1,4
	l8.1,4l2.1,1.1L227.4,223L227.4,223z"/>
</svg>
