<?xml version="1.0" encoding="utf-8"?>
<!-- Generator: Adobe Illustrator 25.2.1, SVG Export Plug-In . SVG Version: 6.00 Build 0)  -->
<svg version="1.1" id="Layer_1" xmlns="http://www.w3.org/2000/svg" xmlns:xlink="http://www.w3.org/1999/xlink" x="0px" y="0px"
	 viewBox="0 0 256 256" style="enable-background:new 0 0 256 256;" xml:space="preserve">
<style type="text/css">
	.st0{display:none;}
	.st1{display:inline;fill:#00A4EA;}
	.st2{display:inline;fill:#F79D00;}
	.st3{fill:#96C61C;}
	.st4{display:inline;fill:#96C61C;}
</style>
<g id="In_Progress" class="st0">
	<path class="st1" d="M128,2C58.4,2,2,58.4,2,128s56.4,126,126,126s126-56.4,126-126S197.6,2,128,2z M128,231.3
		c-57,0-103.3-46.2-103.3-103.3C24.7,71,71,24.7,128,24.7S231.3,71,231.3,128C231.3,185.1,185.1,231.3,128,231.3z M197.4,128
		L197.4,128c0,39.1-31.7,70.8-70.8,70.8c-22.1,0-41.8-10.2-54.8-26l54.8-44.5v-71c22.2,0,42,10.2,55.1,26.3
		C191.5,95.7,197.4,111.1,197.4,128z"/>
</g>
<g id="pending" class="st0">
	<path class="st2" d="M128,2.4c-5.9,0-11.6,0.4-17.3,1.2v22.9c5.6-1,11.4-1.5,17.3-1.5c56.9,0,103,46.2,103,103
		c0,56.9-46.1,103-103,103S25,184.9,25,128c0-6.5,0.6-12.9,1.8-19H3.9c-1,6.2-1.4,12.5-1.4,19c0,69.3,56.2,125.5,125.6,125.5
		c69.3,0,125.5-56.2,125.5-125.5S197.4,2.4,128,2.4z M191.2,117.8v22.6h-60.3c-8.6,0-15.5-6.9-15.5-15.5V55.2H138v62.6H191.2z
		 M46.6,69.6c0,8.9-7.2,16.2-16.2,16.2s-16.2-7.2-16.2-16.2s7.2-16.2,16.2-16.2S46.6,60.7,46.6,69.6z M87.6,29
		c0,8.9-7.2,16.2-16.2,16.2S55.2,38,55.2,29s7.2-16.2,16.2-16.2S87.6,20.1,87.6,29z"/>
</g>
<g id="history">
	<path class="st3" d="M140.9,15.4c-61.2,0-111.2,49.1-112.6,110l-9.8-9.5c-3.8-3.6-9.8-3.5-13.4,0.2c-3.6,3.8-3.5,9.8,0.2,13.4
		l27.4,26.6c1.9,1.8,4.3,2.7,6.7,2.7c0.1,0,0.2,0,0.3,0s0.2,0,0.3,0c2.4,0,4.8-1,6.7-2.9l26.6-27.4c3.6-3.8,3.5-9.8-0.2-13.4
		c-3.8-3.6-9.8-3.5-13.4,0.2l-12.4,12.8V128c0-51.6,42-93.6,93.6-93.6s93.7,42,93.7,93.6s-42,93.7-93.7,93.7c-23.8,0-46.6-9-64-25.3
		c-3.8-3.6-9.8-3.4-13.4,0.4c-3.6,3.8-3.4,9.8,0.4,13.4c20.9,19.6,48.2,30.4,76.9,30.4c62.1,0,112.6-50.5,112.6-112.6
		C253.5,65.9,203,15.4,140.9,15.4z M195.2,156.1l-5.3,11c-0.9,1.8-3,2.5-4.7,1.6l-55.9-27c-1.3-0.6-2.1-1.9-2.1-3.3V71.8
		c0-2,1.6-3.5,3.5-3.5H143c2,0,3.5,1.6,3.5,3.5v56.8l47.1,22.8C195.3,152.2,196,154.4,195.2,156.1z"/>
</g>
<g id="home" class="st0">
	<path class="st4" d="M217.6,141.7v78c0,6.3-5.1,11.4-11.4,11.4h-58.3v-65.8h-40v65.8H50.2c-6.3,0-11.4-5.1-11.4-11.4v-78l71.1-59.9
		l18.3-15.4l18.3,15.4L217.6,141.7z M251.8,124.6l-34.1-28.8c0-0.6,0-64.8,0-64.8c0-3.4-2.7-6.1-6.1-6.1h-26.9
		c-3.4,0-6.1,2.7-6.1,6.1v31.8L138,28.6c-5.7-4.8-14.1-4.8-19.8,0l-114,96c-1.5,1.2-1.7,3.4-0.4,4.9l10.8,12.8
		c1.2,1.5,3.4,1.6,4.9,0.4L128,51.1l108.5,91.6c1.5,1.2,3.6,1,4.9-0.4l10.8-12.8C253.4,128.1,253.2,125.9,251.8,124.6z"/>
</g>
</svg>
