<?xml version="1.0" encoding="utf-8"?>
<!-- Generator: Adobe Illustrator 25.2.1, SVG Export Plug-In . SVG Version: 6.00 Build 0)  -->
<svg version="1.1" id="Layer_1" xmlns="http://www.w3.org/2000/svg" xmlns:xlink="http://www.w3.org/1999/xlink" x="0px" y="0px"
	 viewBox="0 0 256 256" style="enable-background:new 0 0 256 256;" xml:space="preserve">
<style type="text/css">
	.st0{fill:#00A4EA;}
</style>
<path class="st0" d="M128,2C58.4,2,2,58.4,2,128s56.4,126,126,126s126-56.4,126-126S197.6,2,128,2z M128,231.3
	c-57,0-103.3-46.2-103.3-103.3C24.7,71,71,24.7,128,24.7S231.3,71,231.3,128C231.3,185.1,185.1,231.3,128,231.3z M197.4,128
	L197.4,128c0,39.1-31.7,70.8-70.8,70.8c-22.1,0-41.8-10.2-54.8-26l54.8-44.5v-71c22.2,0,42,10.2,55.1,26.3
	C191.5,95.7,197.4,111.1,197.4,128z"/>
</svg>
