<?xml version="1.0" encoding="utf-8"?>
<!-- Generator: Adobe Illustrator 19.0.0, SVG Export Plug-In . SVG Version: 6.00 Build 0)  -->
<svg version="1.1" id="Layer_1" xmlns="http://www.w3.org/2000/svg" xmlns:xlink="http://www.w3.org/1999/xlink" x="0px" y="0px"
	 viewBox="0 0 500 500" style="enable-background:new 0 0 500 500;" xml:space="preserve">
<style type="text/css">
	.st0{fill:#96C61C;}
	.st1{fill:#014FA1;}
</style>
<g id="XMLID_1_">
	<path id="XMLID_3_" class="st0" d="M393.1,93.1c5.9-0.3,11.7-1,17.6-0.6c-5.6,3.2-11.1,6.8-16.5,10.3
		c-17.3,11.3-33.9,23.6-49.8,36.8c-18.4,15-35.6,31.5-51.2,49.4c-19.4,21.7-36.8,45.2-51,70.6c-1.4,2.8-3,5.5-4.4,8.3
		c-1.9,3.3-3.3,6.9-5,10.3c-0.9,2.1-1.8,4.2-2.5,6.4c0-4.5,0.8-9,1-13.5c0.8-5.5,1.2-11.2,2.4-16.7c0.8-5.4,1.9-10.7,3-16
		c1.1-3.5,1.7-7.1,2.7-10.6c1.2-3.5,2-7.1,3.2-10.7c2.9-8.7,6.1-17.3,10.1-25.5c1.4-2.6,2.5-5.5,4-8.1c13-25,32.2-46.8,55.8-62.3
		c8.3-5.6,17.2-10.1,26.2-14.2c5.3-2.1,10.5-4.3,16-5.9c4-1.6,8.3-2.4,12.4-3.7c5.1-1.2,10.3-2.2,15.6-3
		C386.1,93.7,389.6,93.7,393.1,93.1z"/>
	<path id="XMLID_4_" class="st0" d="M121.8,116.5c8.1,0.1,16.2,0.3,24.1,2.2c6.7,1.1,13.2,3.2,19.6,5.6c3.2,1.5,6.6,2.7,9.6,4.5
		c6.4,3.4,12.5,7.5,18,12.3c16.1,13.7,27.6,32.1,35.3,51.6c1.7,4.1,3.2,8.3,4.4,12.5c1.3,3.6,2.2,7.4,3.1,11.1
		c1,4.7,2.4,9.4,2.6,14.2c-0.6-1.2-1.3-2.3-2.1-3.3c-5.9-9-12.7-17.4-19.7-25.6c-4.4-5-8.9-10-13.6-14.7c-2.6-3-5.4-5.6-8-8.6
		c-13.5-13.9-28-26.8-43.2-38.7C141.9,131.7,131.8,124.1,121.8,116.5z"/>
	<path id="XMLID_5_" class="st1" d="M151.7,139.6c15.2,11.9,29.7,24.8,43.2,38.7c2.6,2.9,5.5,5.6,8,8.6c0,32.6,0,65.3,0,97.9
		c-17.1,0-34.2,0-51.3,0C151.7,236.4,151.7,188,151.7,139.6z"/>
	<path id="XMLID_6_" class="st1" d="M293.1,189c15.6-17.9,32.8-34.4,51.2-49.4c0,48.4,0,96.9,0,145.3c-17.1,0-34.1,0-51.2,0
		C293.1,252.9,293.1,220.9,293.1,189z"/>
	<path id="XMLID_7_" class="st1" d="M80.9,346.9c6.5-5,16.2-5.3,23.1-0.8c1.2,0.7,2.1,2,3,3c2.3,2.5,3.2,6,4.2,9.2
		c2.2-4.7,5.5-9,9.8-12.1c4.6-3,10.3-4,15.6-2.8c2.4,0.3,4.5,1.5,6.4,2.8c4,3.4,6.2,8.6,6.7,13.8c0.2,2.3,0.6,4.6,0.6,6.9
		c0,12.9,0,25.8,0,38.7c-1.8,0-3.7,0-5.5,0c0-11.6,0-23.1,0-34.7c0.1-3.8-0.1-7.6-0.7-11.3c-0.9-2.8-1.5-5.8-3.7-7.9
		c-1.9-2.4-5.1-3.2-8-3.5c-4.2-0.2-8.5,1-11.7,3.7c-5,4.2-8.5,10.4-8.8,17c-0.4,3.4-0.2,6.8-0.2,10.1c0,8.9,0,17.8,0,26.6
		c-1.8,0-3.7,0-5.5,0c0-10.8,0-21.5,0-32.3c0-3.8,0.2-7.6-0.5-11.3c-0.3-3.8-1.5-7.6-4.1-10.5c-2-2.3-5.1-3.2-8.1-3.4
		c-3.3-0.1-6.5,0.5-9.5,1.9c-6,3.3-9.7,9.8-10.8,16.5c-0.6,5.5-0.4,11-0.4,16.5c0,7.5,0,15.1,0,22.6c-1.8,0-3.7,0-5.5,0
		c0-20.3,0-40.6,0-60.9c1.8,0,3.7,0,5.5,0c0,4.2,0,8.4,0,12.6c1.1-2.1,2.3-4,3.7-6C77.8,349.7,79.5,348.4,80.9,346.9z"/>
	<path id="XMLID_10_" class="st1" d="M183.8,345.4c5.6-2.7,12.2-2.9,18.3-1.9c2.3,0.2,4.4,1.2,6.4,2.1c2.1,0.9,3.4,2.7,4.9,4.3
		c1.7,2.2,2.5,5,3.2,7.6c0.6,1.7,0.6,3.5,0.6,5.3c0,10.2,0,20.5,0,30.7c0.1,2.3,0,4.8,1,7c1.2,1.8,3.7,1.6,5.6,1.7
		c0,1.6,0,3.2,0,4.7c-2.3,0.8-4.9,0.7-7.2-0.1c-1-0.6-1.9-1.4-2.8-2c-1.8-2.2-2.3-5.1-2.5-7.8c-1.7,1.6-3.1,3.4-5.2,4.5
		c-2.8,2.5-6.3,3.8-9.7,5.2c-4.3,1-8.9,1-13.2,0c-2.6-1.2-5.3-2-7.4-4.1c-0.9-1.1-2-2.1-2.8-3.2c-2.4-4.5-3.5-9.8-2.3-14.8
		c0.5-2.1,1.1-4.2,2.2-6.1c1-1.4,2.2-2.7,3.3-4c0.5-0.6,1.3-0.9,2-1.2c1.7-0.7,3-2.1,4.8-2.4c3.8-0.9,7.4-2.3,11.2-3
		c3-0.9,6.2-1.3,9.2-2.5c2.7-1,5.6-1.8,8-3.5c0.4-3.4-0.6-7-3-9.6c-2.6-3-6.7-3.7-10.4-4.2c-5-0.4-10.4,0.5-14.6,3.5
		c-3.3,2.2-5.7,5.4-7.6,8.8c-1.2-1.1-2.4-2.1-3.9-3c1.8-2.9,3.5-6,6.1-8.3C179.8,347.8,181.6,346.2,183.8,345.4 M207.5,369.8
		c-2.4,1-5.1,1.2-7.5,2.2c-4.3,1.8-9.1,1.2-13.4,2.9c-2.3,1-4.9,1.5-6.8,3.2c-2,1.8-3.6,4.2-3.9,6.9c-0.4,3.2-0.5,6.6,0.7,9.7
		c1.3,2.2,2.6,4.6,5,5.8c5.3,2.4,11.5,2.1,17,0.4c3.3-0.7,5.8-3.3,8.2-5.4c1.9-1.5,2.6-3.9,3.6-6c0.5-2,0.8-4,0.8-6.1
		c0-5.2,0-10.4,0-15.5C210,368.5,208.8,369.3,207.5,369.8z"/>
	<path id="XMLID_11_" class="st1" d="M257,347.4c2.6-3,6.7-4.6,10.7-4.4c1.7,0,3.2,0.5,4.9,0.8c0,2.2,0,4.3,0,6.5
		c-4.2-1.5-9.2-1.4-13,1.2c-3.2,2.1-5.4,5.3-7.2,8.6c-1.9,4.2-3.2,8.7-3.8,13.2c-0.2,3.1-0.6,6.2-0.6,9.3c0,7.7,0,15.3,0,23
		c-1.8,0-3.6,0-5.4,0c0-20.3,0-40.6,0-60.9c1.8,0,3.6,0,5.4,0c0,5.2,0,10.4,0,15.6c0.2,0,0.7-0.1,1-0.1
		C251,355.7,253.2,350.9,257,347.4z"/>
	<path id="XMLID_12_" class="st1" d="M336.7,343.2c3.9-0.6,7.9-0.2,11.7,0.7c2.4,1,5,1.8,6.9,3.6c1.7,1.5,3.5,2.9,4.8,4.8
		c1.7,2.4,3.2,4.9,4.3,7.7c-1.7,0.8-3.4,1.7-5,2.5c-2.2-5.1-5.6-10-10.6-12.6c-6.7-2.9-15.2-2.3-20.7,2.7c-3.9,3.7-6.4,8.7-7.4,14
		c-1.3,7.5-1.2,15.4,1.4,22.6c1,1.8,1.7,3.7,2.8,5.3c1.5,1.6,2.9,3.3,4.6,4.7c1.4,1.4,3.4,1.9,5.2,2.5c4.4,1.1,9.1,1,13.3-0.6
		c2.1-0.5,3.5-2.1,5.1-3.5c1.4-1.6,3.1-3,4-5c0.7-1.4,1.6-2.8,2.2-4.2c1.6,0.8,3.2,1.7,5,2.1c-0.6,1.5-1.1,3.2-2.1,4.5
		c-1.6,2.1-2.7,4.8-5,6.4c-2,2.1-4.5,3.6-7.2,4.5c-2.9,1.6-6.2,1.7-9.4,1.8c-3.3-0.1-6.8-0.3-9.8-1.8c-3.6-1-6.3-3.5-8.9-6
		c-1-1.2-1.8-2.6-2.6-3.9c-2.4-3-3.2-6.9-4.4-10.6c-0.9-5.3-1.4-10.7-0.6-16c0.2-1.4,0.2-2.9,0.6-4.2c1-2.8,1.6-5.8,3.1-8.4
		c1.9-3.1,3.9-6.3,6.9-8.5C328.2,345.3,332.5,343.8,336.7,343.2z"/>
	<path id="XMLID_15_" class="st1" d="M403.7,343c6.3-0.4,13.1,0.9,17.9,5.3c3.1,2.6,5.4,5.9,7.3,9.4c1.3,2.6,2,5.5,2.8,8.3
		c1,6,1,12.2,0,18.3c-1.1,4.1-2.2,8.5-4.9,12c-2.2,3.6-5.4,6.7-9.1,8.7c-1.6,0.6-3.1,1.2-4.6,1.8c-4.5,1.1-9.1,1-13.6,0.1
		c-1.4-0.3-2.7-1.2-4.1-1.6c-1.4-0.4-2.5-1.3-3.8-1.9c-1.1-0.7-1.9-1.8-3-2.6c-1.5-1-2.2-2.6-3.3-4c-4.8-6.6-6.2-15.1-5.9-23.1
		c0-9.3,3.3-19.1,10.6-25.2C393.7,345.1,398.8,343.5,403.7,343 M402.1,348.6c-5.8,0.8-10.6,5.1-13.3,10.2c-2.5,4-3.1,8.8-3.7,13.4
		c-0.4,4.8,0.2,9.6,1.4,14.2c0.7,2.8,2.2,5.2,3.6,7.6c1.9,2.3,4,4.5,6.4,6.1c5.9,2.8,13,2.9,18.9,0.1c1.3-0.8,2.4-1.9,3.6-2.9
		c1.3-1.5,2.9-2.9,3.8-4.7c1.4-3,2.8-6,3.3-9.3c0.7-4.1,0.6-8.2,0.4-12.3c-0.2-4.3-1.6-8.4-3.4-12.3c-2-3.5-4.7-6.7-8.4-8.6
		C410.8,348.3,406.3,347.7,402.1,348.6z"/>
	<path id="XMLID_16_" class="st1" d="M287.9,344.8c1.9,0,3.8,0,5.6,0c0,20.3,0,40.6,0,60.9c-1.9,0-3.8,0-5.7,0
		C287.9,385.4,287.9,365.1,287.9,344.8z"/>
</g>
</svg>
