<?xml version="1.0" encoding="utf-8"?>
<!-- Generator: Adobe Illustrator 25.2.1, SVG Export Plug-In . SVG Version: 6.00 Build 0)  -->
<svg version="1.1" id="Layer_1" xmlns="http://www.w3.org/2000/svg" xmlns:xlink="http://www.w3.org/1999/xlink" x="0px" y="0px"
	 viewBox="0 0 500 337.5" style="enable-background:new 0 0 500 337.5;" xml:space="preserve">
<style type="text/css">
	.st0{fill:#96C61C;}
	.st1{fill:#014FA1;}
	.st2{display:none;fill:#014FA1;}
</style>
<g>
	<path id="XMLID_3_" class="st0" d="M465.1,6.8c9.9-0.5,19.9-1.7,29.8-1.1c-9.6,5.5-18.7,11.5-28,17.5c-29.3,19.1-57.5,40-84.5,62.3
		C351.2,111,322,139,295.6,169.4C262.7,206.1,233.2,246,209,289c-2.4,4.7-5.2,9.2-7.4,14.1c-3.3,5.6-5.6,11.8-8.5,17.5
		c-1.5,3.6-3.1,7.1-4.3,10.9c0-7.7,1.3-15.3,1.8-22.9c1.4-9.4,2-18.9,4.1-28.2c1.4-9.1,3.2-18.1,5.1-27.1c1.8-5.9,2.8-12,4.5-18
		c2-6,3.4-12.1,5.4-18.1c4.9-14.7,10.4-29.3,17.1-43.3c2.4-4.5,4.2-9.3,6.9-13.7c22.1-42.3,54.6-79.4,94.7-105.5
		c14-9.4,29.1-17.1,44.5-24c9-3.5,17.9-7.3,27.2-9.9c6.8-2.7,14.1-4,21.1-6.2c8.7-2,17.5-3.8,26.4-5.1
		C453.2,7.8,459.2,7.9,465.1,6.8z"/>
	<path id="XMLID_4_" class="st0" d="M5.1,46.5c13.7,0.2,27.5,0.6,40.9,3.7c11.4,1.8,22.4,5.5,33.2,9.5c5.4,2.6,11.1,4.5,16.3,7.6
		c10.9,5.8,21.2,12.7,30.6,20.9c27.3,23.2,46.8,54.4,59.9,87.4c2.8,7,5.4,14,7.4,21.3c2.3,6.1,3.7,12.5,5.2,18.9
		c1.7,8,4.1,15.9,4.4,24.1c-1-2-2.2-3.9-3.6-5.7c-9.9-15.3-21.5-29.5-33.4-43.4c-7.5-8.4-15.1-16.9-23.1-24.8
		c-4.4-5-9.2-9.5-13.6-14.5c-22.9-23.5-47.5-45.4-73.3-65.6C39.3,72.3,22.2,59.4,5.1,46.5z"/>
	<path id="XMLID_5_" class="st1" d="M55.9,85.8c25.8,20.2,50.4,42.1,73.3,65.6c4.4,5,9.2,9.5,13.6,14.5c0,55.3,0,110.7,0,166
		c-29,0-57.9,0.1-86.9,0C55.9,249.8,55.9,167.8,55.9,85.8z"/>
	<path id="XMLID_6_" class="st1" d="M295.6,169.4C322,139,351.2,111,382.4,85.6c0.1,82.1,0,164.2,0,246.3c-28.9,0.1-57.9,0-86.8,0
		C295.6,277.7,295.7,223.6,295.6,169.4z"/>
</g>
<path class="st2" d="M80.9,265.6c6.5-5,16.2-5.3,23.1-0.8c1.2,0.7,2.1,2,3,3c2.3,2.5,3.2,6,4.2,9.2c2.2-4.7,5.5-9,9.8-12.1
	c4.6-3,10.3-4,15.6-2.8c2.4,0.3,4.5,1.5,6.4,2.8c4,3.4,6.2,8.6,6.7,13.8c0.2,2.3,0.6,4.6,0.6,6.9c0,12.9,0,25.8,0,38.7
	c-1.8,0-3.7,0-5.5,0c0-11.6,0-23.1,0-34.7c0.1-3.8-0.1-7.6-0.7-11.3c-0.9-2.8-1.5-5.8-3.7-7.9c-1.9-2.4-5.1-3.2-8-3.5
	c-4.2-0.2-8.5,1-11.7,3.7c-5,4.2-8.5,10.4-8.8,17c-0.4,3.4-0.2,6.8-0.2,10.1c0,8.9,0,17.8,0,26.6c-1.8,0-3.7,0-5.5,0
	c0-10.8,0-21.5,0-32.3c0-3.8,0.2-7.6-0.5-11.3c-0.3-3.8-1.5-7.6-4.1-10.5c-2-2.3-5.1-3.2-8.1-3.4c-3.3-0.1-6.5,0.5-9.5,1.9
	c-6,3.3-9.7,9.8-10.8,16.5c-0.6,5.5-0.4,11-0.4,16.5c0,7.5,0,15.1,0,22.6c-1.8,0-3.7,0-5.5,0c0-20.3,0-40.6,0-60.9
	c1.8,0,3.7,0,5.5,0c0,4.2,0,8.4,0,12.6c1.1-2.1,2.3-4,3.7-6C77.8,268.4,79.5,267.1,80.9,265.6z M183.8,264.1c-2.2,0.8-3.9,2.5-5.7,4
	c-2.6,2.3-4.3,5.4-6.1,8.3c1.4,0.8,2.6,1.9,3.9,3c1.9-3.4,4.3-6.7,7.6-8.8c4.1-3.1,9.5-3.9,14.6-3.5c3.7,0.4,7.8,1.2,10.4,4.2
	c2.4,2.5,3.4,6.1,3,9.6c-2.4,1.7-5.3,2.4-8,3.5c-2.9,1.2-6.1,1.5-9.2,2.5c-3.8,0.7-7.4,2.1-11.2,3c-1.8,0.3-3.2,1.7-4.8,2.4
	c-0.7,0.4-1.5,0.6-2,1.2c-1.1,1.3-2.3,2.6-3.3,4c-1.2,1.8-1.8,4-2.2,6.1c-1.2,5-0.1,10.4,2.3,14.8c0.8,1.2,1.9,2.1,2.8,3.2
	c2,2,4.8,2.9,7.4,4.1c4.3,1,8.9,1.1,13.2,0c3.4-1.4,7-2.7,9.7-5.2c2.1-1.1,3.5-3,5.2-4.5c0.2,2.8,0.7,5.6,2.5,7.8
	c1,0.6,1.8,1.4,2.8,2c2.3,0.8,4.8,0.9,7.2,0.1c0-1.6,0-3.2,0-4.7c-1.9-0.1-4.4,0.1-5.6-1.7c-1-2.2-0.9-4.6-1-7c0-10.2,0-20.5,0-30.7
	c0-1.8,0-3.6-0.6-5.3c-0.7-2.7-1.5-5.4-3.2-7.6c-1.5-1.6-2.9-3.4-4.9-4.3c-2.1-0.9-4.2-1.9-6.4-2.1
	C195.9,261.2,189.4,261.5,183.8,264.1 M211.3,286.7c0,5.2,0,10.4,0,15.5c0,2-0.2,4.1-0.8,6.1c-1,2.1-1.8,4.5-3.6,6
	c-2.4,2.2-4.9,4.7-8.2,5.4c-5.5,1.6-11.7,2-17-0.4c-2.4-1.1-3.8-3.6-5-5.8c-1.2-3.1-1.1-6.5-0.7-9.7c0.4-2.7,1.9-5.1,3.9-6.9
	c1.9-1.7,4.5-2.3,6.8-3.2c4.3-1.8,9.1-1.2,13.4-2.9c2.4-1,5.1-1.1,7.5-2.2C208.8,288.1,210,287.3,211.3,286.7z M248.9,279
	c-0.2,0-0.7,0.1-1,0.1c0-5.2,0-10.4,0-15.6c-1.8,0-3.6,0-5.4,0c0,20.3,0,40.6,0,60.9c1.8,0,3.6,0,5.4,0c0-7.7,0-15.3,0-23
	c-0.1-3.1,0.4-6.2,0.6-9.3c0.6-4.6,1.9-9,3.8-13.2c1.8-3.3,4-6.5,7.2-8.6c3.8-2.6,8.8-2.7,13-1.2c0-2.2,0-4.3,0-6.5
	c-1.6-0.3-3.2-0.8-4.9-0.8c-4-0.2-8,1.4-10.7,4.4C253.2,269.7,251,274.4,248.9,279z M325.1,267c-2.9,2.3-5,5.4-6.9,8.5
	c-1.5,2.6-2.1,5.6-3.1,8.4c-0.4,1.4-0.4,2.8-0.6,4.2c-0.8,5.3-0.4,10.8,0.6,16c1.2,3.6,2,7.5,4.4,10.6c0.9,1.3,1.7,2.6,2.6,3.9
	c2.6,2.5,5.4,5,8.9,6c3,1.6,6.5,1.7,9.8,1.8c3.2-0.2,6.5-0.3,9.4-1.8c2.7-0.9,5.3-2.4,7.2-4.5c2.3-1.6,3.3-4.2,5-6.4
	c1-1.4,1.5-3,2.1-4.5c-1.8-0.4-3.4-1.3-5-2.1c-0.6,1.5-1.6,2.8-2.2,4.2c-0.9,2-2.6,3.4-4,5c-1.5,1.4-3,2.9-5.1,3.5
	c-4.2,1.6-8.9,1.7-13.3,0.6c-1.8-0.6-3.8-1.1-5.2-2.5c-1.8-1.3-3.1-3-4.6-4.7c-1.2-1.6-1.9-3.6-2.8-5.3c-2.6-7.2-2.7-15.1-1.4-22.6
	c1-5.2,3.5-10.3,7.4-14c5.5-4.9,14.1-5.6,20.7-2.7c5,2.6,8.5,7.5,10.6,12.6c1.7-0.8,3.3-1.7,5-2.5c-1.1-2.8-2.6-5.3-4.3-7.7
	c-1.3-1.9-3.1-3.3-4.8-4.8c-2-1.8-4.5-2.6-6.9-3.6c-3.8-1-7.8-1.3-11.7-0.7C332.5,262.5,328.2,264,325.1,267z M403.7,261.8
	c-5,0.4-10.1,2.1-13.7,5.6c-7.3,6.1-10.7,15.9-10.6,25.2c-0.3,8,1.1,16.5,5.9,23.1c1.1,1.3,1.8,3,3.3,4c1.1,0.7,1.9,1.9,3,2.6
	c1.3,0.6,2.4,1.6,3.8,1.9c1.4,0.4,2.7,1.2,4.1,1.6c4.5,0.9,9.2,0.9,13.6-0.1c1.5-0.6,3.1-1.3,4.6-1.8c3.8-2,6.9-5.1,9.1-8.7
	c2.7-3.4,3.8-7.8,4.9-12c1-6,1-12.2,0-18.3c-0.9-2.8-1.5-5.7-2.8-8.3c-1.9-3.5-4.2-6.8-7.3-9.4C416.9,262.7,410,261.3,403.7,261.8
	 M414.7,268.9c3.6,1.8,6.4,5,8.4,8.6c1.8,3.9,3.2,8,3.4,12.3c0.2,4.1,0.3,8.3-0.4,12.3c-0.5,3.3-1.8,6.3-3.3,9.3
	c-0.8,1.9-2.5,3.2-3.8,4.7c-1.1,1-2.2,2.1-3.6,2.9c-5.9,2.8-13,2.7-18.9-0.1c-2.5-1.7-4.6-3.8-6.4-6.1c-1.4-2.4-2.9-4.9-3.6-7.6
	c-1.2-4.6-1.8-9.5-1.4-14.2c0.6-4.6,1.3-9.4,3.7-13.4c2.7-5.1,7.5-9.3,13.3-10.2C406.3,266.5,410.8,267,414.7,268.9z M287.9,324.4
	c1.9,0,3.8,0,5.7,0c0-20.3,0-40.6,0-60.9c-1.9,0-3.8,0-5.6,0C287.9,283.8,287.9,304.1,287.9,324.4z"/>
</svg>
