<?xml version="1.0" encoding="utf-8"?>
<!-- Generator: Adobe Illustrator 25.2.1, SVG Export Plug-In . SVG Version: 6.00 Build 0)  -->
<svg version="1.1" id="Layer_1" xmlns="http://www.w3.org/2000/svg" xmlns:xlink="http://www.w3.org/1999/xlink" x="0px" y="0px"
	 viewBox="0 0 256 256" style="enable-background:new 0 0 256 256;" xml:space="preserve">
<style type="text/css">
	.st0{fill:#96C61C;}
</style>
<path class="st0" d="M176.8,62.9h-6.1V31.3c0-8.8-7.1-15.9-15.9-15.9H40.2c-8.8,0-15.9,7.1-15.9,15.9v31.6h-5.5
	c-9.3,0-16.9,7.6-16.9,16.9v111.6c0,1.2,0.1,2.4,0.4,3.5c0.8,3.7,2.7,6.9,5.5,9.3c3,2.5,6.8,4.1,11,4.1h113.6
	c-2.1-5.3-3.6-10.8-4.3-16.6H28.4l62.4-62.3c4-4,10.4-4,14.3,0l27.4,27.3c2.1-5.1,4.8-10,8-14.4l-6.1-5.9l24.5-24.5L176,94.8v22
	c5.6-1.7,11.5-2.8,17.5-3V79.7C193.6,70.4,186.1,62.9,176.8,62.9z M19.5,177.9V93.6L38,112.1l24,24L19.5,177.9z M153,93.4
	l-30.8,30.8l-7-6.8c-9.5-9.5-24.8-9.5-34.3,0l-6.7,6.6L42,91.9V33.7h111V93.4z M253.6,175.4c-0.2-4.3-3.8-7.7-8.2-7.6l-6,0.2
	c-0.7-1.9-1.5-3.7-2.4-5.5l5.2-5.2c1.5-1.5,2.3-3.5,2.3-5.6s-0.8-4.1-2.3-5.6l-9.3-9.3c-1.5-1.5-3.5-2.3-5.6-2.3s-4.1,0.8-5.6,2.3
	l-5.6,5.6c-1.7-0.8-3.4-1.5-5.2-2v-8c0-4.4-3.5-7.9-7.9-7.9h-13.2c-4.4,0-7.9,3.5-7.9,7.9v8.7c-1.6,0.6-3.1,1.2-4.6,2l-6.4-5.9
	c-3.2-2.9-8.2-2.8-11.1,0.4l-8.9,9.7c-1.4,1.5-2.2,3.6-2.1,5.7c0.1,2.1,1,4.1,2.5,5.5l5.9,5.4c-0.7,1.4-1.2,2.8-1.7,4.2l-9.1,0.4
	c-2.1,0.1-4,1-5.5,2.5c-1.4,1.6-2.2,3.6-2.1,5.7l0.5,13.1c0.2,4.2,3.7,7.6,7.9,7.6c0.1,0,0.2,0,0.3,0l7.9-0.3
	c0.5,1.5,1.1,2.9,1.7,4.3l-6.4,6.4c-1.5,1.5-2.3,3.5-2.3,5.6s0.8,4.1,2.3,5.6l9.3,9.3c1.5,1.5,3.5,2.3,5.6,2.3s4.1-0.8,5.6-2.3l6-6
	c1.5,0.8,3.1,1.5,4.8,2.1v8.4c0,4.3,3.5,7.9,7.9,7.9h13.2c4.4,0,7.9-3.5,7.9-7.9v-7.7c1.9-0.6,3.7-1.3,5.5-2.2l5.5,5
	c1.5,1.4,3.4,2.1,5.3,2.1c2.1,0,4.2-0.9,5.8-2.5l8.9-9.7c2.9-3.2,2.8-8.2-0.4-11.1l-4.4-4c0.9-1.8,1.7-3.7,2.4-5.7l7-0.3
	c4.3-0.2,7.7-3.8,7.6-8.2L253.6,175.4z M248,190.5c-0.4,0.5-1,0.8-1.7,0.8l-5.3,0.2l-5.6,0.2c-0.4,1.9-1,3.7-1.7,5.5
	c-0.2,0.5-0.5,1.1-0.7,1.6c-0.8,1.7-1.7,3.4-2.7,4.9l4,3.7l3.5,3.2c1,0.9,1,2.5,0.1,3.5l-8.9,9.7c-0.9,1-2.5,1.1-3.5,0.1l-4.1-3.8
	l-4.1-3.8c-1.7,1-3.4,1.9-5.2,2.6c-0.4,0.2-0.8,0.3-1.1,0.4c-1.8,0.7-3.6,1.2-5.4,1.6v11.9c0,1.3-1.1,2.5-2.5,2.5h-13.2
	c-1.4,0-2.5-1.1-2.5-2.5v-12.3c-1.9-0.5-3.7-1.1-5.4-1.9c-0.2-0.1-0.5-0.2-0.7-0.3l0,0c-1.7-0.8-3.4-1.7-4.9-2.7l-3.9,3.9l-5,5
	c-0.9,0.9-2.6,0.9-3.5,0l-9.3-9.3c-1-1-1-2.5,0-3.5l5.3-5.3l3.9-4c-1-1.6-1.8-3.4-2.5-5.1c-0.1-0.1-0.1-0.3-0.2-0.4
	c-0.7-1.7-1.2-3.5-1.7-5.4l-5.5,0.2l-6.6,0.3c-1.3,0.1-2.5-1-2.6-2.4l-0.5-13.1c0-0.7,0.2-1.3,0.7-1.8s1.1-0.8,1.7-0.8l7.4-0.3
	l5.6-0.2c0.5-1.9,1.1-3.7,1.8-5.5v-0.1c0.7-1.7,1.6-3.4,2.6-5L160,159l-4.9-4.5c-0.5-0.4-0.8-1-0.8-1.7s0.2-1.3,0.6-1.8l8.9-9.7
	c0.5-0.5,1.1-0.8,1.8-0.8c0.6,0,1.2,0.2,1.7,0.7l5.2,4.8l4.1,3.8c1.6-1,3.3-1.9,5.1-2.7c0.1,0,0.2-0.1,0.3-0.1
	c1.7-0.8,3.6-1.4,5.4-1.9v-12.7c0-1.4,1.1-2.5,2.5-2.5h13.2c1.4,0,2.5,1.1,2.5,2.5v12.2c1.9,0.4,3.7,0.9,5.4,1.6
	c0.4,0.1,0.7,0.3,1.1,0.4c1.8,0.7,3.5,1.6,5.1,2.5l8.4-8.4c0.5-0.5,1.1-0.7,1.7-0.7c0.7,0,1.3,0.3,1.7,0.7l9.3,9.3
	c0.5,0.5,0.7,1.1,0.7,1.7c0,0.7-0.3,1.3-0.7,1.7l-4.2,4.2l-3.9,3.9c1,1.6,1.9,3.2,2.7,5c0.3,0.6,0.5,1.1,0.7,1.7
	c0.7,1.7,1.3,3.5,1.7,5.4l5.5-0.2l4.7-0.2c1.3-0.1,2.5,1,2.5,2.4l0.5,13.2C248.7,189.4,248.5,190,248,190.5z M196.5,154.2
	c-15.7,0-28.4,12.7-28.4,28.4s12.7,28.4,28.4,28.4s28.4-12.7,28.4-28.4S212.2,154.2,196.5,154.2z M196.5,201.2
	c-10.3,0-18.6-8.3-18.6-18.6s8.3-18.6,18.6-18.6s18.6,8.3,18.6,18.6S206.8,201.2,196.5,201.2z"/>
</svg>
