<?xml version="1.0" encoding="utf-8"?>
<!-- Generator: Adobe Illustrator 25.2.1, SVG Export Plug-In . SVG Version: 6.00 Build 0)  -->
<svg version="1.1" id="Layer_2" xmlns="http://www.w3.org/2000/svg" xmlns:xlink="http://www.w3.org/1999/xlink" x="0px" y="0px"
	 viewBox="0 0 380.6 273.8" style="enable-background:new 0 0 380.6 273.8;" xml:space="preserve">
<style type="text/css">
	.st0{fill:#8AC634;}
	.st1{fill:#0271C3;}
</style>
<g>
	<path class="st0" d="M52.7,80h19.8l15.8,40.8L104.5,80h19.6l11.3,76.1h-19.6l-5.6-43.4l-18.5,43.4h-8.6l-16.7-43.4l-6.8,43.4H39.7
		L52.7,80z M311.2,104.3c0,22.9-16.8,26.6-23.8,26.6c-7,0-13.7,0-13.7,0v25H253V80.4c0,0,24.8,0,30.2,0
		C288.7,80.4,311.2,81.8,311.2,104.3z M290.8,105.8c0-7.4-5.4-9.4-8.9-9.4c-3.5,0-8.9,0-8.9,0v18.7c0,0,5.9,0,9.1,0
		C285.2,115.1,290.8,113.2,290.8,105.8z M192.1,74.6l-17.2,37.2h34.9L192.1,74.6z M218.7,130.5h-52.4L154.4,156h76.3L218.7,130.5z"
		/>
	<path class="st1" d="M177.6,16.8c38.3,0,71.3,23.1,85.7,56.2h13.5c-15-40.1-53.8-68.7-99.1-68.7S93.5,32.9,78.5,73h13.5
		C106.3,40,139.3,16.8,177.6,16.8z M177.6,203.5c-32,0-60.2-16-77-40.5H85.9c18.3,31.7,52.5,53,91.7,53s73.4-21.3,91.7-53h-14.8
		C237.8,187.5,209.6,203.5,177.6,203.5z M378.1,250.9v10.7h-3.4v-10c0-1.8-0.3-3.1-0.8-3.8c-0.5-0.7-1.3-1.1-2.6-1.1
		c-1,0-1.9,0.5-2.6,1.4c-0.8,1-1.1,2.2-1.1,3.5v10H364v-10.4c0-3.1-1.1-4.6-3.5-4.6c-1.1,0-1.9,0.4-2.6,1.3
		c-0.7,0.9-1.1,2.1-1.1,3.6v10h-3.5v-17.6h3.5v1.9c1.2-1.5,2.9-2.3,4.9-2.3c1.2,0,2.3,0.4,3.2,1c0.7,0.5,1.2,1.2,1.6,2
		c1.3-2,3.1-3,5.5-3C376.1,243.7,378.1,246.1,378.1,250.9z M351.1,244.1c-0.4-0.2-1-0.3-1.8-0.3c-1.1,0-2,0.4-2.9,1.1
		c-0.5,0.4-0.9,0.9-1.2,1.4v-2.2h-3.4v17.6h3.4v-9c0-1.8,0.4-3.2,1.1-4.2c0.7-1,1.6-1.5,2.6-1.5c0.8,0,1.4,0.2,1.8,0.5l0.6,0.5v-3.8
		L351.1,244.1z M338.2,252.8c0,2.8-0.8,5-2.4,6.7c-1.6,1.7-3.7,2.5-6.4,2.5c-2.6,0-4.7-0.8-6.2-2.5c-1.5-1.6-2.3-3.8-2.3-6.5
		c0-2.9,0.8-5.2,2.4-6.9c1.6-1.7,3.8-2.5,6.5-2.5c2.6,0,4.7,0.8,6.1,2.4C337.5,247.8,338.2,250,338.2,252.8z M334.7,252.9
		c0-2-0.4-3.6-1.3-4.6c-0.9-1.1-2.1-1.6-3.7-1.6c-1.6,0-2.9,0.5-3.8,1.6c-0.9,1.1-1.4,2.7-1.4,4.6c0,1.9,0.5,3.4,1.4,4.5
		c0.9,1.1,2.2,1.6,3.8,1.6c1.6,0,2.9-0.5,3.7-1.6S334.7,254.9,334.7,252.9z M320.4,236c-0.5-0.2-1.2-0.3-2.1-0.3
		c-1.6,0-3,0.5-4.1,1.7c-1.1,1.1-1.6,2.6-1.6,4.4v2.3h-2.9v3h2.9v14.5h3.4v-14.5h3.9v-3H316v-2.2c0-2.9,1.4-3.2,2.4-3.2
		c0.6,0,1.1,0.1,1.6,0.4l0.6,0.3v-3.3L320.4,236z M308.7,247.1v-3h-4.2V239l-3.4,1.1v4h-2.9v3h2.9v9.6c0,3.5,1.7,5.3,4.8,5.3
		c1.1,0,2-0.2,2.7-0.6l0.2-0.1v-3.3l-0.6,0.5c-0.4,0.3-0.9,0.5-1.5,0.5c-0.8,0-1.3-0.2-1.6-0.6c-0.3-0.4-0.5-1.1-0.5-2.2v-9.1H308.7
		z M295.8,250.4v11.3h-3.4v-1.9c-1.2,1.5-2.8,2.3-4.9,2.3c-1.8,0-3.2-0.5-4.2-1.4c-1-1-1.5-2.2-1.5-3.8c0-3.3,2-5.3,5.9-5.9l4.7-0.7
		c-0.1-2.5-1.1-3.6-3.1-3.6c-1.9,0-3.7,0.7-5.2,2l-0.6,0.5v-3.8l0.2-0.1c1.7-1.1,3.7-1.6,5.9-1.6
		C293.7,243.7,295.8,245.9,295.8,250.4z M291.2,257.8c0.8-0.9,1.2-1.9,1.2-3.3v-1.2l-3.6,0.5c-1.2,0.2-2.1,0.5-2.7,0.9
		c-0.5,0.4-0.8,1-0.8,2.1c0,0.7,0.2,1.3,0.8,1.7c0.5,0.5,1.2,0.7,2.1,0.7C289.4,259.1,290.4,258.6,291.2,257.8z M274.9,236v25.7h3.4
		V236H274.9z M271.6,244.8c0,2.3-0.8,4.3-2.4,5.8c-1.6,1.5-3.8,2.2-6.5,2.2h-2.7v8.9h-3.5v-24.3h6.9c2.6,0,4.7,0.6,6.1,1.9
		C270.8,240.6,271.6,242.4,271.6,244.8z M266.5,248.3c0.9-0.8,1.4-1.9,1.4-3.4c0-2.9-1.7-4.3-5.2-4.3h-2.9v8.9h2.5
		C264.2,249.5,265.6,249.1,266.5,248.3z M238.7,236v25.7h3.5V236H238.7z M234.3,250.4v11.3h-3.5v-1.9c-1.2,1.5-2.8,2.3-4.9,2.3
		c-1.8,0-3.2-0.5-4.2-1.4c-1-1-1.5-2.2-1.5-3.8c0-3.3,2-5.3,5.9-5.9l4.7-0.7c-0.1-2.5-1.1-3.6-3.1-3.6c-1.9,0-3.7,0.7-5.2,2
		l-0.6,0.5v-3.8l0.2-0.1c1.7-1.1,3.7-1.6,5.9-1.6C232.2,243.7,234.3,245.9,234.3,250.4z M229.7,257.8c0.8-0.9,1.2-1.9,1.2-3.3v-1.2
		l-3.6,0.5c-1.2,0.2-2.1,0.5-2.7,0.9c-0.5,0.4-0.8,1-0.8,2.1c0,0.7,0.2,1.3,0.8,1.7c0.5,0.5,1.2,0.7,2.1,0.7
		C227.9,259.1,228.9,258.6,229.7,257.8z M216.5,244.1l-4.6,12.5c-0.1,0.2-0.2,0.5-0.2,0.7c-0.1-0.2-0.2-0.5-0.3-0.8l-4.4-12.5h-3.8
		l6.7,17.6h3.2l7-17.6H216.5z M202.5,252.8c0,2.8-0.8,5-2.4,6.7c-1.6,1.7-3.7,2.5-6.4,2.5c-2.6,0-4.7-0.8-6.2-2.5
		c-1.5-1.6-2.3-3.8-2.3-6.5c0-2.9,0.8-5.2,2.4-6.9c1.6-1.7,3.8-2.5,6.5-2.5c2.6,0,4.7,0.8,6.1,2.4
		C201.7,247.8,202.5,250,202.5,252.8z M197.6,248.3c-0.9-1.1-2.1-1.6-3.7-1.6c-1.6,0-2.9,0.5-3.8,1.6c-1,1.1-1.4,2.7-1.4,4.6
		c0,1.9,0.5,3.4,1.4,4.5c1,1.1,2.2,1.6,3.8,1.6c1.6,0,2.9-0.5,3.7-1.6s1.3-2.6,1.3-4.6C199,250.9,198.5,249.4,197.6,248.3z
		 M184.4,244.1c-0.4-0.2-1-0.3-1.8-0.3c-1.1,0-2,0.4-2.9,1.1c-0.5,0.4-0.9,0.9-1.2,1.4v-2.2h-3.4v17.6h3.4v-9c0-1.8,0.4-3.2,1.1-4.2
		c0.7-1,1.5-1.5,2.6-1.5c0.8,0,1.4,0.2,1.8,0.5l0.6,0.5v-3.8L184.4,244.1z M171.5,252.4c0,2.9-0.7,5.2-2.1,7
		c-1.4,1.8-3.4,2.7-5.9,2.7c-2,0-3.5-0.7-4.7-2.1v9.5h-3.4v-25.3h3.4v2.2c1.4-1.7,3.2-2.6,5.5-2.6c2.3,0,4.1,0.8,5.4,2.4
		C170.9,247.7,171.5,249.8,171.5,252.4z M168,252.3c0-1.8-0.4-3.2-1.2-4.2c-0.8-1-1.8-1.5-3.2-1.5c-1.5,0-2.6,0.5-3.5,1.5
		c-0.9,1-1.3,2.3-1.3,3.9v2.4c0,1.3,0.4,2.4,1.3,3.3c0.8,0.9,1.9,1.3,3.2,1.3c1.5,0,2.7-0.6,3.5-1.7
		C167.6,256.2,168,254.5,168,252.3z M151.7,252.4c0,2.9-0.7,5.2-2.1,7c-1.4,1.8-3.4,2.7-5.9,2.7c-1.9,0-3.5-0.7-4.7-2.1v9.5h-3.5
		v-25.3h3.5v2.2c1.4-1.7,3.2-2.6,5.5-2.6c2.3,0,4.1,0.8,5.4,2.4C151.1,247.7,151.7,249.8,151.7,252.4z M146.9,257.3
		c0.9-1.2,1.3-2.9,1.3-5c0-1.8-0.4-3.2-1.2-4.2c-0.8-1-1.9-1.5-3.2-1.5c-1.5,0-2.6,0.5-3.5,1.5c-0.9,1-1.3,2.3-1.3,3.9v2.4
		c0,1.3,0.4,2.4,1.2,3.3c0.8,0.9,1.9,1.3,3.2,1.3C144.9,259.1,146,258.5,146.9,257.3z M133.3,261.7h-3.9l-2.5-6.6h-9.5l-2.4,6.6
		h-3.9l9.3-24.3h3.4L133.3,261.7z M125.8,251.8l-3.5-9.5c0,0,0-0.1,0-0.2c0,0,0,0.1,0,0.2l-3.5,9.5H125.8z M101,252.8
		c0,2.8-0.8,5-2.4,6.7c-1.6,1.7-3.7,2.5-6.4,2.5c-2.6,0-4.7-0.8-6.2-2.5c-1.5-1.6-2.3-3.8-2.3-6.5c0-2.9,0.8-5.2,2.4-6.9
		c1.6-1.7,3.8-2.5,6.5-2.5c2.6,0,4.7,0.8,6.2,2.4C100.3,247.8,101,250,101,252.8z M96.2,248.3c-0.9-1.1-2.1-1.6-3.7-1.6
		c-1.6,0-2.9,0.5-3.8,1.6c-0.9,1.1-1.4,2.7-1.4,4.6c0,1.9,0.5,3.4,1.4,4.5c1,1.1,2.2,1.6,3.8,1.6c1.6,0,2.9-0.5,3.7-1.6
		c0.9-1,1.3-2.6,1.3-4.6C97.5,250.9,97.1,249.4,96.2,248.3z M77.2,246.7c1.3,0,2.6,0.4,3.8,1.2l0.6,0.4v-3.7l-0.2-0.1
		c-1.2-0.6-2.5-0.9-4.1-0.9c-2.8,0-5,0.9-6.6,2.6c-1.6,1.8-2.5,4.1-2.5,6.9c0,2.6,0.8,4.7,2.3,6.3c1.5,1.6,3.6,2.5,6.1,2.5
		c1.8,0,3.4-0.4,4.8-1.2l0.2-0.1v-3.5l-0.6,0.5c-1.2,0.9-2.5,1.4-3.9,1.4c-1.6,0-2.9-0.5-3.9-1.6c-1-1.1-1.5-2.5-1.5-4.4
		c0-1.9,0.5-3.5,1.6-4.6C74.3,247.3,75.6,246.7,77.2,246.7z M64.4,236.9c-0.8-0.8-2.2-0.8-3,0c-0.4,0.4-0.6,0.9-0.6,1.5
		c0,0.6,0.2,1.1,0.6,1.5c0.4,0.4,0.9,0.6,1.5,0.6c0.6,0,1.1-0.2,1.5-0.6c0.4-0.4,0.6-0.9,0.6-1.5C65.1,237.9,64.9,237.3,64.4,236.9z
		 M61.2,244.1v17.6h3.5v-17.6H61.2z M58.8,244.1c-0.4-0.2-1-0.3-1.8-0.3c-1.1,0-2,0.4-2.9,1.1c-0.5,0.4-0.9,0.9-1.2,1.4v-2.2h-3.5
		v17.6h3.5v-9c0-1.8,0.4-3.2,1.1-4.2c0.7-1,1.5-1.5,2.6-1.5c0.8,0,1.4,0.2,1.8,0.5L59,248v-3.8L58.8,244.1z M45.1,250.4v11.3h-3.4
		v-1.9c-1.2,1.5-2.8,2.3-4.9,2.3c-1.8,0-3.2-0.5-4.2-1.4c-1-1-1.5-2.2-1.5-3.8c0-3.3,2-5.3,5.9-5.9l4.7-0.7
		c-0.1-2.5-1.1-3.6-3.1-3.6c-1.9,0-3.7,0.7-5.2,2l-0.6,0.5v-3.8l0.2-0.1c1.7-1.1,3.7-1.6,5.9-1.6C43,243.7,45.1,245.9,45.1,250.4z
		 M40.5,257.8c0.8-0.9,1.2-1.9,1.2-3.3v-1.2l-3.6,0.5c-1.2,0.2-2.1,0.5-2.7,0.9c-0.5,0.4-0.8,1-0.8,2.1c0,0.7,0.2,1.3,0.8,1.7
		c0.5,0.5,1.2,0.7,2.1,0.7C38.7,259.1,39.7,258.6,40.5,257.8z M23.2,237.4l-7.5,16.6c-0.2,0.5-0.5,1.2-0.8,2c-0.2-0.5-0.5-1.2-0.8-2
		l-7.3-16.6H2.5v24.3h3.4v-16.2c0-0.7,0-1.3,0-1.9l8.1,18.1h1.8l8-18c0,0.7,0,1.3,0,1.9v16.2h3.5v-24.3H23.2z"/>
</g>
</svg>
