<?xml version="1.0" encoding="utf-8"?>
<!-- Generator: Adobe Illustrator 25.2.1, SVG Export Plug-In . SVG Version: 6.00 Build 0)  -->
<svg version="1.1" id="Logo" xmlns="http://www.w3.org/2000/svg" xmlns:xlink="http://www.w3.org/1999/xlink" x="0px" y="0px"
	 viewBox="0 0 720 720" style="enable-background:new 0 0 720 720;" xml:space="preserve">
<style type="text/css">
	.st0{fill:url(#SVGID_2_);}
	.st1{fill:url(#SVGID_3_);}
	.st2{filter:url(#Adobe_OpacityMaskFilter);}
	.st3{fill:url(#SVGID_4_);}
	.st4{mask:url(#SVGID_1_);fill:url(#SVGID_5_);}
	.st5{fill:#FFFFFF;}
</style>
<radialGradient id="SVGID_2_" cx="159.9008" cy="572.4792" r="661.27" gradientTransform="matrix(1.0167 0 0 -1.0167 -9.8744 722.1496)" gradientUnits="userSpaceOnUse">
	<stop  offset="0" style="stop-color:#00A1DF"/>
	<stop  offset="0.13" style="stop-color:#0092D7"/>
	<stop  offset="0.37" style="stop-color:#006CC1"/>
	<stop  offset="0.62" style="stop-color:#003DA6"/>
	<stop  offset="0.73" style="stop-color:#043799"/>
	<stop  offset="0.93" style="stop-color:#102777"/>
	<stop  offset="1" style="stop-color:#152169"/>
</radialGradient>
<circle class="st0" cx="360" cy="360" r="360"/>
<radialGradient id="SVGID_3_" cx="111.7608" cy="655.6892" r="1096.4301" gradientTransform="matrix(1.0167 0 0 -1.0167 -9.8744 722.1496)" gradientUnits="userSpaceOnUse">
	<stop  offset="2.000000e-02" style="stop-color:#FFFFFF"/>
	<stop  offset="3.000000e-02" style="stop-color:#FBFEFF"/>
	<stop  offset="9.000000e-02" style="stop-color:#BAE7F9"/>
	<stop  offset="0.14" style="stop-color:#87D5F4"/>
	<stop  offset="0.19" style="stop-color:#63C9F1"/>
	<stop  offset="0.23" style="stop-color:#4CC1EF"/>
	<stop  offset="0.26" style="stop-color:#44BEEE"/>
	<stop  offset="0.28" style="stop-color:#37B8EB"/>
	<stop  offset="0.35" style="stop-color:#19ACE5"/>
	<stop  offset="0.41" style="stop-color:#07A4E0"/>
	<stop  offset="0.45" style="stop-color:#00A1DF"/>
	<stop  offset="0.79" style="stop-color:#0045AB"/>
	<stop  offset="0.82" style="stop-color:#003DA6"/>
	<stop  offset="0.96" style="stop-color:#0059B6"/>
</radialGradient>
<path class="st1" d="M95.6,359.9C95.6,195,199.7,54.4,345.8,0.3C153.6,7.8,0,165.9,0,360c0,194.3,153.9,352.6,346.4,359.7
	C200.1,665.7,95.6,525,95.6,359.9z"/>
<defs>
	<filter id="Adobe_OpacityMaskFilter" filterUnits="userSpaceOnUse" x="0" y="0.3" width="346.4" height="719.4">
		<feColorMatrix  type="matrix" values="1 0 0 0 0  0 1 0 0 0  0 0 1 0 0  0 0 0 1 0"/>
	</filter>
</defs>
<mask maskUnits="userSpaceOnUse" x="0" y="0.3" width="346.4" height="719.4" id="SVGID_1_">
	<g class="st2">
		
			<radialGradient id="SVGID_4_" cx="755.9939" cy="369.843" r="381.37" fx="455.2239" fy="374.963" gradientTransform="matrix(3.136000e-02 -1.0162 -1.0341 -3.192000e-02 660.7353 1129.0753)" gradientUnits="userSpaceOnUse">
			<stop  offset="0.1" style="stop-color:#FFFFFF"/>
			<stop  offset="0.35" style="stop-color:#FDFDFD"/>
			<stop  offset="0.45" style="stop-color:#F6F6F6"/>
			<stop  offset="0.51" style="stop-color:#EAEAEA"/>
			<stop  offset="0.57" style="stop-color:#D9D9D9"/>
			<stop  offset="0.62" style="stop-color:#C3C3C3"/>
			<stop  offset="0.66" style="stop-color:#A7A7A7"/>
			<stop  offset="0.7" style="stop-color:#868686"/>
			<stop  offset="0.73" style="stop-color:#606060"/>
			<stop  offset="0.77" style="stop-color:#353535"/>
			<stop  offset="0.8" style="stop-color:#060606"/>
			<stop  offset="0.8" style="stop-color:#000000"/>
		</radialGradient>
		<path class="st3" d="M95.6,359.9C95.6,195,199.7,54.4,345.8,0.3C153.6,7.8,0,165.9,0,360c0,194.3,153.9,352.6,346.4,359.7
			C200.1,665.7,95.6,525,95.6,359.9z"/>
	</g>
</mask>
<radialGradient id="SVGID_5_" cx="285.1707" cy="425.2892" r="445.49" gradientTransform="matrix(1.0167 0 0 -1.0167 -9.8744 722.1496)" gradientUnits="userSpaceOnUse">
	<stop  offset="0.32" style="stop-color:#44BEEE;stop-opacity:0"/>
	<stop  offset="0.48" style="stop-color:#2B99D9;stop-opacity:0.27"/>
	<stop  offset="0.67" style="stop-color:#1476C6;stop-opacity:0.58"/>
	<stop  offset="0.82" style="stop-color:#0561BA;stop-opacity:0.84"/>
	<stop  offset="0.92" style="stop-color:#0059B6"/>
</radialGradient>
<path class="st4" d="M95.6,359.9C95.6,195,199.7,54.4,345.8,0.3C153.6,7.8,0,165.9,0,360c0,194.3,153.9,352.6,346.4,359.7
	C200.1,665.7,95.6,525,95.6,359.9z"/>
<path class="st5" d="M353.9,325.7c23.9-58.9-20.8-74.9-49.9-74.9h-96.4c8,5.5,6.7,12.8,5.1,17.3l-56.2,179.5
	c-2.2,7.1-10.6,14.6-15.1,15.7h78c-4.3-0.8-10.4-6.9-8.2-15.2l20.4-64.9C231.7,383.2,325.5,395.9,353.9,325.7L353.9,325.7z
	 M278.1,267.3c10.2,0,38.5,1.4,20.2,54.9c-19.1,56.2-61.5,44.6-61.5,44.6l31.2-99.5H278.1L278.1,267.3z M416.3,463.4h52.5
	c-16.8-5.4-41.6-21.3-51.5-32.6c8-8.7,17.9-19.7,19.7-42h-27.2c0,0,5.2,3,5.2,9.4c0,5.9-2.4,14.1-7,19.8
	c-8-11.8-16.5-25.3-19.5-45.1c10.7-5.3,25.7-11.1,37.6-21.5c11.3-9.9,13.9-19.3,14.1-25.4v-0.8c0-6.4-2.5-12.4-7.1-16.9
	c-7.9-7.8-20.3-11-33.4-8.6c-10.5,2-19.4,7.6-23.9,11.7C360,326.3,358,350.8,358,361.9c0,2.7,0.1,4.7,0.2,5.9c-0.9,0.4-2.5,1-2.5,1
	c-11.6,4.3-42.5,12.5-53.5,37.9c-1.4,3.2-3.4,10.2-3.4,18.3c0,7,1.5,14.8,6,21.9c7.8,12.2,21,19.9,42.2,19.5
	c23-0.4,45.7-16.1,49.7-19C400.6,451.1,410.9,460.8,416.3,463.4L416.3,463.4z M416.3,321.4c-2.7,17.1-24.9,34.4-30.3,36.7
	c-1-9.6-0.5-24.8,7.5-37.2c5.3-8.2,12.4-11.8,18.1-9.8C416.2,312.7,416.7,316.9,416.3,321.4L416.3,321.4z M385.5,435.8
	c-3.1,1.9-15.3,8.1-26.7,9.2c-10.6,1-28.2-3.1-28.1-24.3c0-18.1,19.7-31.4,30.4-36C365.4,402.2,375.1,422,385.5,435.8L385.5,435.8z
	 M575.8,267.5c31.2-7.5,56.9,16.9,59.2,18.6l8.9-28.3c-12.3-3.7-101.8-34-165.1,38.2c-38.9,44.4-48.4,135.4,0.9,159.8
	c52.8,26.1,111.1-4,115.4-6.1l24.1-76.8c2.6-9.3,8.5-15.3,18.9-19.2h-83.8c12.2,5.1,11.3,14.3,10.4,18.1l-24.1,76.8
	c-3.2,0.6-70.6,17.4-32.9-100.5C516,322.8,538.7,276.4,575.8,267.5L575.8,267.5z"/>
</svg>
