<?xml version="1.0" encoding="utf-8"?>
<!-- Generator: Adobe Illustrator 25.2.1, SVG Export Plug-In . SVG Version: 6.00 Build 0)  -->
<svg version="1.1" id="Layer_1" xmlns="http://www.w3.org/2000/svg" xmlns:xlink="http://www.w3.org/1999/xlink" x="0px" y="0px"
	 viewBox="0 0 256 256" style="enable-background:new 0 0 256 256;" xml:space="preserve">
<style type="text/css">
	.st0{fill:#F79D00;}
</style>
<path class="st0" d="M128,2.4c-5.9,0-11.6,0.4-17.3,1.2v22.9c5.6-1,11.4-1.5,17.3-1.5c56.9,0,103,46.2,103,103
	c0,56.9-46.1,103-103,103S25,184.9,25,128c0-6.5,0.6-12.9,1.8-19H3.9c-1,6.2-1.4,12.5-1.4,19c0,69.3,56.2,125.5,125.6,125.5
	c69.3,0,125.5-56.2,125.5-125.5S197.4,2.4,128,2.4z M191.2,117.8v22.6h-60.3c-8.6,0-15.5-6.9-15.5-15.5V55.2H138v62.6H191.2z
	 M46.6,69.6c0,8.9-7.2,16.2-16.2,16.2s-16.2-7.2-16.2-16.2s7.2-16.2,16.2-16.2S46.6,60.7,46.6,69.6z M87.6,29
	c0,8.9-7.2,16.2-16.2,16.2S55.2,38,55.2,29s7.2-16.2,16.2-16.2S87.6,20.1,87.6,29z"/>
</svg>
