<?xml version="1.0" encoding="utf-8"?>
<!-- Generator: Adobe Illustrator 25.2.1, SVG Export Plug-In . SVG Version: 6.00 Build 0)  -->
<svg version="1.1" id="Layer_1" xmlns="http://www.w3.org/2000/svg" xmlns:xlink="http://www.w3.org/1999/xlink" x="0px" y="0px"
	 viewBox="0 0 256 256" style="enable-background:new 0 0 256 256;" xml:space="preserve">
<style type="text/css">
	.st0{fill:#B1C9E2;}
</style>
<path class="st0" d="M219.4,99.5h-62.7c0,0-0.1,0-0.1-0.1V36.7c0-15.6-12.2-28.8-27.8-29.2C112.6,7.1,99.4,20,99.4,36v63.3
	c0,0,0,0.1-0.1,0.1H36.7c-15.6,0-28.8,12.2-29.2,27.8C7.1,143.3,20,156.5,36,156.5h63.3c0,0,0.1,0,0.1,0.1v62.7
	c0,15.6,12.2,28.8,27.8,29.2c16.1,0.4,29.3-12.5,29.3-28.5v-63.3c0,0,0-0.1,0.1-0.1H220c16,0,28.9-13.2,28.5-29.3
	C248.1,111.7,234.9,99.5,219.4,99.5z"/>
</svg>
