<?xml version="1.0" encoding="utf-8"?>
<!-- Generator: Adobe Illustrator 25.2.1, SVG Export Plug-In . SVG Version: 6.00 Build 0)  -->
<svg version="1.1" id="Layer_1" xmlns="http://www.w3.org/2000/svg" xmlns:xlink="http://www.w3.org/1999/xlink" x="0px" y="0px"
	 viewBox="0 0 256 256" style="enable-background:new 0 0 256 256;" xml:space="preserve">
<style type="text/css">
	.st0{fill:#B1C9E2;}
</style>
<path class="st0" d="M195,56.7c-15.9-14.9-36.1-24.1-57.7-26.1c-0.7-0.1-1.3-0.1-2.1-0.2h-0.1c-0.8-0.1-1.5-0.1-2.2-0.1
	c-0.8,0-1.5-0.1-2.3-0.1c-0.8,0-1.5,0-2.3,0s-1.5,0-2.3,0c-0.9,0-1.6,0.1-2.5,0.1c-0.8,0-1.5,0.1-2.4,0.1
	C71.2,33.9,31.5,75,30.2,125.4l-0.2-0.2l-8.3-8.1c-3.3-3.2-8.5-3.1-11.7,0.2c-3.2,3.3-3.1,8.5,0.2,11.7l22.5,21.9l1.3,1.3
	c1.6,1.5,3.8,2.3,5.9,2.3c0.1,0,0.2,0,0.3,0h0.3c2.1,0,4.2-0.9,5.8-2.5l3.1-3.2l20-20.6c3.2-3.3,3.1-8.5-0.2-11.7
	c-3.3-3.2-8.5-3.1-11.7,0.1l-10.8,11.1v-0.1c0.1-43.5,34.5-79,77.5-81c0.7,0,1.3-0.1,2-0.1c0.7,0,1.3,0,1.9,0c0.2,0,0.4,0,0.7,0
	c0.5,0,1,0,1.5,0h0.1c0.6,0,1.3,0.1,1.8,0.1s1.3,0.1,1.8,0.1c19.5,1.4,37.1,9.7,50.4,22.5c3.3,2.3,7.9,1.9,10.8-1.1
	C198.5,65,198.3,59.8,195,56.7z M245.8,127l-22.5-22l-1.3-1.3c-1.6-1.5-3.8-2.3-5.9-2.3c-0.1,0-0.2,0-0.3,0h-0.3
	c-2.1,0-4.2,0.9-5.8,2.5l-3.1,3.2l-20,20.6c-3.2,3.3-3.1,8.5,0.1,11.7c3.3,3.2,8.5,3.1,11.7-0.1l10.8-11.1v0.1
	c-0.1,43.5-34.5,79-77.5,81c-0.7,0-1.3,0.1-2,0.1c-0.7,0-1.3,0-2.1,0c-0.2,0-0.3,0-0.5,0c-0.5,0-1,0-1.5,0h-0.1
	c-1.2,0-2.3-0.1-3.6-0.2c-0.6,0-1.3-0.1-1.8-0.2c-18.9-1.7-35.8-10-48.8-22.5c-3.3-2.4-7.9-2-10.8,1.1c-3.1,3.3-3,8.5,0.4,11.7
	c15.9,14.9,36.1,24.1,57.7,26.1c0.7,0.1,1.3,0.1,2.1,0.2h0.1c0.8,0.1,1.5,0.1,2.2,0.1c0.8,0,1.5,0.1,2.3,0.1c0.7,0,1.4,0,2.1,0
	c0.9,0,1.6,0,2.5,0c0.9,0,1.6-0.1,2.5-0.1c0.8,0,1.5-0.1,2.4-0.1c49.8-3.6,89.5-44.6,90.8-95.1l0.2,0.2l8.3,8.1
	c3.3,3.2,8.5,3.1,11.7-0.2C249.1,135.4,249.1,130.2,245.8,127z"/>
</svg>
