<?xml version="1.0" encoding="utf-8"?>
<!-- Generator: Adobe Illustrator 25.2.1, SVG Export Plug-In . SVG Version: 6.00 Build 0)  -->
<svg version="1.1" id="Layer_1" xmlns="http://www.w3.org/2000/svg" xmlns:xlink="http://www.w3.org/1999/xlink" x="0px" y="0px"
	 viewBox="0 0 256 256" style="enable-background:new 0 0 256 256;" xml:space="preserve">
<style type="text/css">
	.st0{fill:#96C61C;}
</style>
<path id="Report" class="st0" d="M117.3,179.4h82.2v-11.3h-82.2V179.4z M117.3,147.2h82.2v-11.3h-82.2V147.2z M117.3,101v11.3h82.2
	V101H117.3z M117.3,211.7h60.9v-11.3h-60.9C117.3,200.4,117.3,211.7,117.3,211.7z M93,211.7h14.2v-11.3H93V211.7z M93,179.4h14.2
	v-11.3H93V179.4z M93,147.2h14.2v-11.3H93V147.2z M93,112.2h14.2V101H93V112.2z M196,30.9H83.5c-10.3,0-19,7.4-20.8,17.2
	c-0.2,1.3-0.4,2.6-0.4,4V232c0,11.7,9.5,21.2,21.2,21.2h123.1c1.9,0,3.8-0.3,5.6-0.8c9-2.5,15.6-10.7,15.6-20.4V59.7L196,30.9z
	 M216.5,231.9c0,3.4-1.7,6.4-4.3,8.2c-1.6,1.1-3.5,1.8-5.6,1.8H83.5c-5.5,0-9.9-4.4-9.9-9.9V52.1c0-1.4,0.3-2.7,0.8-4
	c1.5-3.5,5-6,9.1-6h92.8v31.8c0,6.4,5.2,11.5,11.5,11.5h28.7V231.9z M117.3,179.4h82.2v-11.3h-82.2V179.4z M117.3,147.2h82.2v-11.3
	h-82.2V147.2z M117.3,112.2h82.2V101h-82.2V112.2z M117.3,211.7h60.9v-11.3h-60.9C117.3,200.4,117.3,211.7,117.3,211.7z M93,211.7
	h14.2v-11.3H93V211.7z M93,179.4h14.2v-11.3H93V179.4z M93,147.2h14.2v-11.3H93V147.2z M93,112.2h14.2V101H93V112.2z M93,101v11.3
	h14.2V101H93z M117.3,101v11.3h82.2V101H117.3z M93,135.9v11.3h14.2v-11.3H93z M93,168.2v11.3h14.2v-11.3H93z M93,200.5v11.3h14.2
	v-11.3H93z M117.3,200.5v11.3h60.9v-11.3H117.3z M117.3,168.2v11.3h82.2v-11.3H117.3z M117.3,135.9v11.3h82.2v-11.3H117.3z
	 M192.2,31.2v-4c0-12.1-10.2-22-22.6-22H58.2c-12.4,0-22.6,9.9-22.6,22v177c0,12.1,10.2,22,22.6,22h4.4c-0.2-1.3-0.4-2.6-0.4-4v-7.8
	h-4.1c-5.8,0-10.6-4.6-10.6-10.3v-177c0-5.7,4.8-10.3,10.6-10.3h111.3c5.8,0,10.6,4.6,10.6,10.3v4L192.2,31.2z"/>
</svg>
