<?xml version="1.0" encoding="utf-8"?>
<!-- Generator: Adobe Illustrator 25.2.1, SVG Export Plug-In . SVG Version: 6.00 Build 0)  -->
<svg version="1.1" id="Layer_1" xmlns="http://www.w3.org/2000/svg" xmlns:xlink="http://www.w3.org/1999/xlink" x="0px" y="0px"
	 viewBox="0 0 256 256" style="enable-background:new 0 0 256 256;" xml:space="preserve">
<style type="text/css">
	.st0{fill:#B1C9E2;}
</style>
<path class="st0" d="M177.8,186.6c-10.4,0-18.8,8.5-18.8,18.8c0,10.4,8.5,18.8,18.8,18.8c10.4,0,18.8-8.5,18.8-18.8
	C196.6,195.1,188.2,186.6,177.8,186.6z M177.8,214.3c-4.8,0-8.7-3.9-8.7-8.7s3.9-8.7,8.7-8.7c4.8,0,8.7,3.9,8.7,8.7
	S182.6,214.3,177.8,214.3z M128.7,153.2c-10.4,0-18.8,8.5-18.8,18.8s8.5,18.8,18.8,18.8s18.8-8.5,18.8-18.8
	C147.6,161.7,139.2,153.2,128.7,153.2z M128.7,180.9c-4.8,0-8.7-3.9-8.7-8.7c0-4.8,3.9-8.7,8.7-8.7s8.7,3.9,8.7,8.7
	C137.5,177,133.6,180.9,128.7,180.9z M177.8,149.1c-2.4-1.5-5.4-0.8-6.9,1.6l-43.2,69.1c-1.5,2.4-0.8,5.4,1.6,6.9
	c0.9,0.5,1.8,0.8,2.7,0.8c1.6,0,3.3-0.9,4.3-2.4l43.2-69.1C180.8,153.8,180.2,150.6,177.8,149.1z M105.2,57.9
	c-2-1.9-5.3-1.8-7.2,0.3l-5.6,6.1c-1.9,2-1.8,5.3,0.3,7.2c2,1.9,5.2,1.8,7.1-0.3l5.6-6.1C107.3,63,107.2,59.8,105.2,57.9z
	 M88.5,75.8c-2-1.9-5.3-1.8-7.2,0.3l-5.6,6.1c-1.8,2-1.8,5.3,0.4,7.2s5.3,1.8,7.2-0.3l5.6-6.1C90.7,81,90.5,77.7,88.5,75.8z
	 M71.8,93.7c-2-1.9-5.2-1.8-7.2,0.3l-5.6,6.1c-1.9,2-1.8,5.3,0.3,7.2s5.3,1.8,7.2-0.3l5.6-6.1C74.1,98.9,74,95.6,71.8,93.7z
	 M71.8,93.7c-2-1.9-5.2-1.8-7.2,0.3l-5.6,6.1c-1.9,2-1.8,5.3,0.3,7.2s5.3,1.8,7.2-0.3l5.6-6.1C74.1,98.9,74,95.6,71.8,93.7z
	 M88.5,75.8c-2-1.9-5.3-1.8-7.2,0.3l-5.6,6.1c-1.8,2-1.8,5.3,0.4,7.2s5.3,1.8,7.2-0.3l5.6-6.1C90.7,81,90.5,77.7,88.5,75.8z
	 M105.2,57.9c-2-1.9-5.3-1.8-7.2,0.3l-5.6,6.1c-1.9,2-1.8,5.3,0.3,7.2c2,1.9,5.2,1.8,7.1-0.3l5.6-6.1
	C107.3,63,107.2,59.8,105.2,57.9z M162.4,236.5c3,1.3,6.3,1.3,9.3,0H162.4z M105.2,57.9c-2-1.9-5.3-1.8-7.2,0.3l-5.6,6.1
	c-1.9,2-1.8,5.3,0.3,7.2c2,1.9,5.2,1.8,7.1-0.3l5.6-6.1C107.3,63,107.2,59.8,105.2,57.9z M88.5,75.8c-2-1.9-5.3-1.8-7.2,0.3
	l-5.6,6.1c-1.8,2-1.8,5.3,0.4,7.2s5.3,1.8,7.2-0.3l5.6-6.1C90.7,81,90.5,77.7,88.5,75.8z M71.8,93.7c-2-1.9-5.2-1.8-7.2,0.3
	l-5.6,6.1c-1.9,2-1.8,5.3,0.3,7.2s5.3,1.8,7.2-0.3l5.6-6.1C74.1,98.9,74,95.6,71.8,93.7z M71.8,93.7c-2-1.9-5.2-1.8-7.2,0.3
	l-5.6,6.1c-1.9,2-1.8,5.3,0.3,7.2s5.3,1.8,7.2-0.3l5.6-6.1C74.1,98.9,74,95.6,71.8,93.7z M88.5,75.8c-2-1.9-5.3-1.8-7.2,0.3
	l-5.6,6.1c-1.8,2-1.8,5.3,0.4,7.2s5.3,1.8,7.2-0.3l5.6-6.1C90.7,81,90.5,77.7,88.5,75.8z M105.2,57.9c-2-1.9-5.3-1.8-7.2,0.3
	l-5.6,6.1c-1.9,2-1.8,5.3,0.3,7.2c2,1.9,5.2,1.8,7.1-0.3l5.6-6.1C107.3,63,107.2,59.8,105.2,57.9z M77,179.8c-2.8,0-5.1,2.3-5.1,5.1
	v8.2c0,2.8,2.3,5.1,5.1,5.1c2.8,0,5.1-2.3,5.1-5.1v-8.2C82.1,182,79.9,179.8,77,179.8z M77,204.3c-2.8,0-5.1,2.3-5.1,5.1v8.2
	c0,2.8,2.3,5.1,5.1,5.1c2.8,0,5.1-2.3,5.1-5.1v-8.2C82.1,206.6,79.9,204.3,77,204.3z M77,179.8c-2.8,0-5.1,2.3-5.1,5.1v8.2
	c0,2.8,2.3,5.1,5.1,5.1c2.8,0,5.1-2.3,5.1-5.1v-8.2C82.1,182,79.9,179.8,77,179.8z M77,204.3c-2.8,0-5.1,2.3-5.1,5.1v8.2
	c0,2.8,2.3,5.1,5.1,5.1c2.8,0,5.1-2.3,5.1-5.1v-8.2C82.1,206.6,79.9,204.3,77,204.3z M177.8,186.6c-10.4,0-18.8,8.5-18.8,18.8
	c0,10.4,8.5,18.8,18.8,18.8c10.4,0,18.8-8.5,18.8-18.8C196.6,195.1,188.2,186.6,177.8,186.6z M177.8,214.3c-4.8,0-8.7-3.9-8.7-8.7
	s3.9-8.7,8.7-8.7c4.8,0,8.7,3.9,8.7,8.7S182.6,214.3,177.8,214.3z M177.8,149.1c-2.4-1.5-5.4-0.8-6.9,1.6l-43.2,69.1
	c-1.5,2.4-0.8,5.4,1.6,6.9c0.9,0.5,1.8,0.8,2.7,0.8c1.6,0,3.3-0.9,4.3-2.4l43.2-69.1C180.8,153.8,180.2,150.6,177.8,149.1z
	 M128.7,153.2c-10.4,0-18.8,8.5-18.8,18.8s8.5,18.8,18.8,18.8s18.8-8.5,18.8-18.8C147.6,161.7,139.2,153.2,128.7,153.2z
	 M128.7,180.9c-4.8,0-8.7-3.9-8.7-8.7c0-4.8,3.9-8.7,8.7-8.7s8.7,3.9,8.7,8.7C137.5,177,133.6,180.9,128.7,180.9z M77,204.3
	c-2.8,0-5.1,2.3-5.1,5.1v8.2c0,2.8,2.3,5.1,5.1,5.1c2.8,0,5.1-2.3,5.1-5.1v-8.2C82.1,206.6,79.9,204.3,77,204.3z M77,179.8
	c-2.8,0-5.1,2.3-5.1,5.1v8.2c0,2.8,2.3,5.1,5.1,5.1c2.8,0,5.1-2.3,5.1-5.1v-8.2C82.1,182,79.9,179.8,77,179.8z M177.8,186.6
	c-10.4,0-18.8,8.5-18.8,18.8c0,10.4,8.5,18.8,18.8,18.8c10.4,0,18.8-8.5,18.8-18.8C196.6,195.1,188.2,186.6,177.8,186.6z
	 M177.8,214.3c-4.8,0-8.7-3.9-8.7-8.7s3.9-8.7,8.7-8.7c4.8,0,8.7,3.9,8.7,8.7S182.6,214.3,177.8,214.3z M177.8,149.1
	c-2.4-1.5-5.4-0.8-6.9,1.6l-43.2,69.1c-1.5,2.4-0.8,5.4,1.6,6.9c0.9,0.5,1.8,0.8,2.7,0.8c1.6,0,3.3-0.9,4.3-2.4l43.2-69.1
	C180.8,153.8,180.2,150.6,177.8,149.1z M162.4,236.5c3,1.3,6.3,1.3,9.3,0H162.4z M128.7,153.2c-10.4,0-18.8,8.5-18.8,18.8
	s8.5,18.8,18.8,18.8s18.8-8.5,18.8-18.8C147.6,161.7,139.2,153.2,128.7,153.2z M128.7,180.9c-4.8,0-8.7-3.9-8.7-8.7
	c0-4.8,3.9-8.7,8.7-8.7s8.7,3.9,8.7,8.7C137.5,177,133.6,180.9,128.7,180.9z M77,204.3c-2.8,0-5.1,2.3-5.1,5.1v8.2
	c0,2.8,2.3,5.1,5.1,5.1c2.8,0,5.1-2.3,5.1-5.1v-8.2C82.1,206.6,79.9,204.3,77,204.3z M77,179.8c-2.8,0-5.1,2.3-5.1,5.1v8.2
	c0,2.8,2.3,5.1,5.1,5.1c2.8,0,5.1-2.3,5.1-5.1v-8.2C82.1,182,79.9,179.8,77,179.8z M77,179.8c-2.8,0-5.1,2.3-5.1,5.1v8.2
	c0,2.8,2.3,5.1,5.1,5.1c2.8,0,5.1-2.3,5.1-5.1v-8.2C82.1,182,79.9,179.8,77,179.8z M77,204.3c-2.8,0-5.1,2.3-5.1,5.1v8.2
	c0,2.8,2.3,5.1,5.1,5.1c2.8,0,5.1-2.3,5.1-5.1v-8.2C82.1,206.6,79.9,204.3,77,204.3z M71.8,93.7c-2-1.9-5.2-1.8-7.2,0.3l-5.6,6.1
	c-1.9,2-1.8,5.3,0.3,7.2s5.3,1.8,7.2-0.3l5.6-6.1C74.1,98.9,74,95.6,71.8,93.7z M77,179.8c-2.8,0-5.1,2.3-5.1,5.1v8.2
	c0,2.8,2.3,5.1,5.1,5.1c2.8,0,5.1-2.3,5.1-5.1v-8.2C82.1,182,79.9,179.8,77,179.8z M77,204.3c-2.8,0-5.1,2.3-5.1,5.1v8.2
	c0,2.8,2.3,5.1,5.1,5.1c2.8,0,5.1-2.3,5.1-5.1v-8.2C82.1,206.6,79.9,204.3,77,204.3z M88.5,75.8c-2-1.9-5.3-1.8-7.2,0.3l-5.6,6.1
	c-1.8,2-1.8,5.3,0.4,7.2s5.3,1.8,7.2-0.3l5.6-6.1C90.7,81,90.5,77.7,88.5,75.8z M105.2,57.9c-2-1.9-5.3-1.8-7.2,0.3l-5.6,6.1
	c-1.9,2-1.8,5.3,0.3,7.2c2,1.9,5.2,1.8,7.1-0.3l5.6-6.1C107.3,63,107.2,59.8,105.2,57.9z M128.7,153.2c-10.4,0-18.8,8.5-18.8,18.8
	s8.5,18.8,18.8,18.8s18.8-8.5,18.8-18.8C147.6,161.7,139.2,153.2,128.7,153.2z M128.7,180.9c-4.8,0-8.7-3.9-8.7-8.7
	c0-4.8,3.9-8.7,8.7-8.7s8.7,3.9,8.7,8.7C137.5,177,133.6,180.9,128.7,180.9z M162.4,236.5c3,1.3,6.3,1.3,9.3,0H162.4z M177.8,149.1
	c-2.4-1.5-5.4-0.8-6.9,1.6l-43.2,69.1c-1.5,2.4-0.8,5.4,1.6,6.9c0.9,0.5,1.8,0.8,2.7,0.8c1.6,0,3.3-0.9,4.3-2.4l43.2-69.1
	C180.8,153.8,180.2,150.6,177.8,149.1z M177.8,186.6c-10.4,0-18.8,8.5-18.8,18.8c0,10.4,8.5,18.8,18.8,18.8
	c10.4,0,18.8-8.5,18.8-18.8C196.6,195.1,188.2,186.6,177.8,186.6z M177.8,214.3c-4.8,0-8.7-3.9-8.7-8.7s3.9-8.7,8.7-8.7
	c4.8,0,8.7,3.9,8.7,8.7S182.6,214.3,177.8,214.3z M77,179.8c-2.8,0-5.1,2.3-5.1,5.1v8.2c0,2.8,2.3,5.1,5.1,5.1
	c2.8,0,5.1-2.3,5.1-5.1v-8.2C82.1,182,79.9,179.8,77,179.8z M77,204.3c-2.8,0-5.1,2.3-5.1,5.1v8.2c0,2.8,2.3,5.1,5.1,5.1
	c2.8,0,5.1-2.3,5.1-5.1v-8.2C82.1,206.6,79.9,204.3,77,204.3z M128.7,153.2c-10.4,0-18.8,8.5-18.8,18.8s8.5,18.8,18.8,18.8
	s18.8-8.5,18.8-18.8C147.6,161.7,139.2,153.2,128.7,153.2z M128.7,180.9c-4.8,0-8.7-3.9-8.7-8.7c0-4.8,3.9-8.7,8.7-8.7
	s8.7,3.9,8.7,8.7C137.5,177,133.6,180.9,128.7,180.9z M162.4,236.5c3,1.3,6.3,1.3,9.3,0H162.4z M177.8,149.1
	c-2.4-1.5-5.4-0.8-6.9,1.6l-43.2,69.1c-1.5,2.4-0.8,5.4,1.6,6.9c0.9,0.5,1.8,0.8,2.7,0.8c1.6,0,3.3-0.9,4.3-2.4l43.2-69.1
	C180.8,153.8,180.2,150.6,177.8,149.1z M177.8,186.6c-10.4,0-18.8,8.5-18.8,18.8c0,10.4,8.5,18.8,18.8,18.8
	c10.4,0,18.8-8.5,18.8-18.8C196.6,195.1,188.2,186.6,177.8,186.6z M177.8,214.3c-4.8,0-8.7-3.9-8.7-8.7s3.9-8.7,8.7-8.7
	c4.8,0,8.7,3.9,8.7,8.7S182.6,214.3,177.8,214.3z M237.2,173.5c1.6-0.5,3.4-0.9,5.3-0.9c2.1,0,4.2,0.4,6.1,1.1v-31.2
	c0-6.8-5.4-12.3-12.3-12.3H220L91.4,11.1c-4.9-4.5-12.6-4.3-17.3,0.6L52.9,34.6c1.9,0.8,3.7,1.8,5.3,3.3c1.4,1.3,2.5,2.8,3.4,4.4
	c3.3,6.1,2.5,13.8-2.5,19.1c-4.9,5.3-12.6,6.7-18.8,3.9c-1.6-0.8-3.2-1.8-4.5-3c-1.5-1.5-2.8-3.2-3.7-5.1L10.7,80.1
	C6.1,85,6.4,92.7,11.3,97.4l35.5,33H35.1c-6.7,0-12.3,5.4-12.3,12.3v31.2c1.9-0.8,3.9-1.1,6.1-1.1c1.9,0,3.8,0.3,5.4,0.9
	c6.4,2.3,11.1,8.5,11.1,15.7c0,7.3-4.7,13.4-11.1,15.7c-1.6,0.6-3.5,0.9-5.4,0.9c-2.1,0-4.2-0.4-6.1-1.1v31.2
	c0,6.7,5.4,12.3,12.3,12.3h201.1c6.7,0,12.3-5.4,12.3-12.3v-31.2c-1.9,0.8-3.9,1.1-6.1,1.1c-1.9,0-3.5-0.3-5.3-0.9
	c-6.6-2.1-11.4-8.5-11.4-15.8C225.8,181.9,230.6,175.7,237.2,173.5z M46.2,114L21.7,91.2c-1.8-1.5-1.8-4.2-0.3-5.9l10.9-11.7
	c11,6.7,25.5,4.9,34.6-4.8c9.1-9.9,9.7-24.4,2.3-34.9l11-11.7c1.5-1.6,4.2-1.8,5.9-0.3l24.5,22.7l-1.5,1.6c-1.9,2-1.8,5.3,0.3,7.2
	c2,1.9,5.2,1.8,7.1-0.3l1.5-1.6l84.9,78.8h-139l-10.2-9.5l1.9-2c1.9-2,1.8-5.3-0.3-7.2c-2-1.9-5.3-1.8-7.1,0.3L46.2,114z
	 M237.2,216.3v16c0,2.3-1.9,4.2-4.2,4.2h-61.3c-2.9,1.3-6.3,1.3-9.3,0H82.1v-2.8c0-2.8-2.3-5.1-5.1-5.1c-2.8,0-5.1,2.3-5.1,5.1v2.8
	H38.6c-2.3,0-4.2-1.9-4.2-4.2v-16c12.6-2.5,22.1-13.6,22.1-27c0-13.4-9.5-24.5-22.1-27v-16c0-2.3,1.9-4.2,4.2-4.2h33.5v2.1
	c0,2.8,2.3,5.1,5.1,5.1c1.9,0,3.5-1,4.4-2.5c0.4-0.8,0.6-1.6,0.6-2.5V142h151c2.3,0,4.2,1.9,4.2,4.2v16c-11,2.1-19.7,10.7-21.9,21.7
	c-0.4,1.8-0.5,3.5-0.5,5.4C214.8,202.6,224.4,213.9,237.2,216.3z M82.1,160.4v8.2c0,2.8-2.3,5.1-5.1,5.1c-2.8,0-5.1-2.3-5.1-5.1
	v-8.2c0-1.9,1-3.5,2.5-4.4c0.8-0.5,1.6-0.6,2.5-0.6C79.9,155.4,82.1,157.5,82.1,160.4z"/>
</svg>
